<svg xmlns="http://www.w3.org/2000/svg" viewBox="0 0 21.5 20.52"><title>Asset 9</title><g id="Layer_2" data-name="Layer 2"><g id="Layer_1-2" data-name="Layer 1">
<path d="M21.5,20.52H0V0H21.5Zm-11-3.59c2.53,0,5.06,0,7.58,0a1.39,1.39,0,0,0,1.5-1.5V6.58A1.41,1.41,0,0,0,18,5.06c-1,0-1.91,0-2.86,0a1.34,1.34,0,0,1-1.2-.7c-.12-.21-.22-.44-.34-.65A1.28,1.28,0,0,0,12.48,3q-2,0-4,0a1.24,1.24,0,0,0-1.1.65,4,4,0,0,0-.24.46,1.52,1.52,0,0,1-1.56,1c-.91,0-1.82,0-2.74,0A1.39,1.39,0,0,0,1.4,6.49v9a1.42,1.42,0,0,0,0,.36A1.39,1.39,0,0,0,2.9,16.93C5.42,16.94,8,16.93,10.47,16.93Zm-7-12.57h2a.65.65,0,0,0-.63-.69,4.82,4.82,0,0,0-.76,0A.66.66,0,0,0,3.52,4.36Z" style="fill:#fff"/><path d="M10.47,16.93c-2.52,0-5.05,0-7.57,0a1.39,1.39,0,0,1-1.47-1.11,1.42,1.42,0,0,1,0-.36v-9A1.39,1.39,0,0,1,2.82,5.06c.92,0,1.83,0,2.74,0a1.52,1.52,0,0,0,1.56-1,4,4,0,0,1,.24-.46A1.24,1.24,0,0,1,8.46,3q2,0,4,0a1.28,1.28,0,0,1,1.15.72c.12.21.22.44.34.65a1.34,1.34,0,0,0,1.2.7c1,0,1.9,0,2.86,0a1.41,1.41,0,0,1,1.52,1.52v8.85a1.39,1.39,0,0,1-1.5,1.5C15.53,16.94,13,16.93,10.47,16.93ZM5.59,10.62a4.88,4.88,0,1,0,4.64-4.85A4.89,4.89,0,0,0,5.59,10.62ZM16.76,7.86a.71.71,0,0,0,.7-.69.72.72,0,0,0-.7-.7.68.68,0,0,0-.69.7A.67.67,0,0,0,16.76,7.86Z"/><path d="M3.52,4.36a.66.66,0,0,1,.64-.69,4.82,4.82,0,0,1,.76,0,.65.65,0,0,1,.63.69Z"/><path d="M5.59,10.62a4.88,4.88,0,1,1,5.1,4.92A4.9,4.9,0,0,1,5.59,10.62Zm1.4,0a3.48,3.48,0,1,0,3.48-3.44A3.45,3.45,0,0,0,7,10.62Z" style="fill:#fff"/><path d="M16.76,7.86a.67.67,0,0,1-.69-.69.68.68,0,0,1,.69-.7.72.72,0,0,1,.7.7A.71.71,0,0,1,16.76,7.86Z" style="fill:#fff"/><path d="M7,10.62a3.48,3.48,0,1,1,3.47,3.51A3.45,3.45,0,0,1,7,10.62Z"/></g></g></svg>