<svg xmlns="http://www.w3.org/2000/svg" viewBox="0 0 21.5 20.52"><title>Asset 10</title><g id="Layer_2" data-name="Layer 2"><g id="Layer_1-2" data-name="Layer 1"><path d="M21.5,20.52H0V0H21.5Zm-11-3.59c2.53,0,5.06,0,7.58,0a1.39,1.39,0,0,0,1.5-1.5V6.58A1.41,1.41,0,0,0,18,5.06c-1,0-1.91,0-2.86,0a1.34,1.34,0,0,1-1.2-.7c-.12-.21-.22-.44-.34-.65A1.28,1.28,0,0,0,12.48,3q-2,0-4,0a1.24,1.24,0,0,0-1.1.65,4,4,0,0,0-.24.46,1.52,1.52,0,0,1-1.56,1c-.91,0-1.82,0-2.74,0A1.39,1.39,0,0,0,1.4,6.49v9a1.42,1.42,0,0,0,0,.36A1.39,1.39,0,0,0,2.9,16.93C5.42,16.94,8,16.93,10.47,16.93Zm-7-12.57h2a.65.65,0,0,0-.63-.69,4.82,4.82,0,0,0-.76,0A.66.66,0,0,0,3.52,4.36Z" style="fill:#fff"/><path d="M5.59,10.62a4.88,4.88,0,1,1,5.1,4.92A4.9,4.9,0,0,1,5.59,10.62Zm1.4,0a3.48,3.48,0,1,0,3.48-3.44A3.45,3.45,0,0,0,7,10.62Z" style="fill:#fff"/><path d="M16.76,7.86a.67.67,0,0,1-.69-.69.68.68,0,0,1,.69-.7.72.72,0,0,1,.7.7A.71.71,0,0,1,16.76,7.86Z" style="fill:#fff"/><path d="M19.55,6.58A1.41,1.41,0,0,0,18,5.06c-1,0-1.91,0-2.86,0a1.34,1.34,0,0,1-1.2-.7c-.12-.21-.22-.44-.34-.65A1.28,1.28,0,0,0,12.48,3q-2,0-4,0a1.24,1.24,0,0,0-1.1.65,4,4,0,0,0-.24.46,1.52,1.52,0,0,1-1.56,1c-.91,0-1.82,0-2.74,0A1.39,1.39,0,0,0,1.4,6.49v9a1.42,1.42,0,0,0,0,.36A1.39,1.39,0,0,0,2.9,16.93c2.52,0,5.05,0,7.57,0s5.06,0,7.58,0a1.39,1.39,0,0,0,1.5-1.5Zm-8.86,9a4.89,4.89,0,1,1,4.66-5A4.89,4.89,0,0,1,10.69,15.54Zm6.07-7.68a.67.67,0,0,1-.69-.69.68.68,0,0,1,.69-.7.72.72,0,0,1,.7.7A.71.71,0,0,1,16.76,7.86Z"/><path d="M4.92,3.67a4.82,4.82,0,0,0-.76,0,.66.66,0,0,0-.64.69h2A.65.65,0,0,0,4.92,3.67Z"/><path d="M10.47,7.18A3.48,3.48,0,1,0,14,10.68,3.45,3.45,0,0,0,10.47,7.18Z"/></g></g></svg>