<svg xmlns="http://www.w3.org/2000/svg" viewBox="0 0 33.84 33.93"><title>diploma</title><g id="Layer_2" data-name="Layer 2"><g id="Layer_1-2" data-name="Layer 1"><g id="CK9lKa.tif"><path d="M33.84,27.16H27.15V23.79h3.34V3.42H3.35V23.76H6.69v3.39H0V0H33.84Z"/><path d="M23.66,33.91l-.56-.25c-1.86-.94-3.74-1.86-5.59-2.81a1.11,1.11,0,0,0-1.15,0c-1.85,1-3.73,1.87-5.6,2.8l-.61.29V17.05a6.78,6.78,0,0,1,13.5-1,4.9,4.9,0,0,1,0,.77V33.5A3.74,3.74,0,0,1,23.66,33.91ZM16.9,20.35A3.38,3.38,0,0,0,20.33,17,3.41,3.41,0,1,0,13.51,17,3.39,3.39,0,0,0,16.9,20.35Z"/></g></g></g></svg>