<svg xmlns="http://www.w3.org/2000/svg" viewBox="0 0 160.58 40.3"><title>learn</title><g id="Layer_2" data-name="Layer 2"><g id="xd"><path d="M13,29.27,1.1,21.1a2.73,2.73,0,0,1-.85-.78A1.71,1.71,0,0,1,0,19.39v-.65a1.66,1.66,0,0,1,.25-.93A2.91,2.91,0,0,1,1.1,17L13,8.82l.38-.21a1.16,1.16,0,0,1,.53-.17.8.8,0,0,1,.57.21.72.72,0,0,1,.23.55v1.56a1,1,0,0,1-.21.68,2.7,2.7,0,0,1-.67.57L3.53,19l10.26,7a3.17,3.17,0,0,1,.69.61,1.16,1.16,0,0,1,.19.65v1.56a.74.74,0,0,1-.23.58.8.8,0,0,1-.57.21A2.06,2.06,0,0,1,13,29.27Z"/><path d="M126.35,35.38a.7.7,0,0,1-.23-.53,1.57,1.57,0,0,1,.11-.45l13-31.2a1.07,1.07,0,0,1,1-.65h1.4a.74.74,0,0,1,.53.23.7.7,0,0,1,.23.53,1.62,1.62,0,0,1-.11.46l-13,31.2a1,1,0,0,1-.32.43,1,1,0,0,1-.66.21h-1.37A.7.7,0,0,1,126.35,35.38Z"/><path d="M146.14,29.46a.8.8,0,0,1-.22-.57V27.33a1.08,1.08,0,0,1,.19-.65,2.85,2.85,0,0,1,.68-.61l10.26-7-10.26-7a2.89,2.89,0,0,1-.67-.57,1,1,0,0,1-.2-.68V9.2a.73.73,0,0,1,.2-.55.76.76,0,0,1,.56-.21,1.3,1.3,0,0,1,.55.17,3.3,3.3,0,0,0,.4.21L159.48,17a3,3,0,0,1,.86.82,1.76,1.76,0,0,1,.24.93v.65a1.79,1.79,0,0,1-.24.93,2.78,2.78,0,0,1-.86.78l-11.85,8.17a1.92,1.92,0,0,1-.95.41A.75.75,0,0,1,146.14,29.46Z"/><path d="M23,3.38q0-.78,0-1.23a2,2,0,0,0-.18-.72.79.79,0,0,0-.44-.34A4.15,4.15,0,0,0,21.54,1,.15.15,0,0,1,21.4.86a.41.41,0,0,1,0-.18.29.29,0,0,1,0-.18.17.17,0,0,1,.16-.09L22.84.3A7.72,7.72,0,0,0,24.27,0c.17,0,.28,0,.34,0a.54.54,0,0,1,.1.2V10.34c0,.3,0,.56,0,.76a1.18,1.18,0,0,0,.14.5.7.7,0,0,0,.38.31,2.58,2.58,0,0,0,.73.16.25.25,0,0,1,.16.1.41.41,0,0,1,.05.19.34.34,0,0,1-.05.17.17.17,0,0,1-.16.08,9,9,0,0,1-1-.06,9.77,9.77,0,0,0-1.08-.06,10.55,10.55,0,0,0-1.13.06,10.55,10.55,0,0,1-1.13.06.17.17,0,0,1-.15-.08.34.34,0,0,1-.05-.17.41.41,0,0,1,.05-.19.25.25,0,0,1,.16-.1,3.1,3.1,0,0,0,.79-.16.79.79,0,0,0,.4-.3.93.93,0,0,0,.15-.46c0-.19,0-.42,0-.7Z"/><path d="M29.31,7.93c-.06,0-.09,0-.1.07v.15a5.19,5.19,0,0,0,.2,1.58A2.83,2.83,0,0,0,30,10.79a2.09,2.09,0,0,0,.88.58,3.31,3.31,0,0,0,1.11.18,6.67,6.67,0,0,0,1.19-.1,2,2,0,0,0,1-.44.18.18,0,0,1,.18,0,.28.28,0,0,1,.17.09.3.3,0,0,1,.08.16.19.19,0,0,1,0,.16,3.12,3.12,0,0,1-1.29,1,4.73,4.73,0,0,1-1.79.29,5,5,0,0,1-1.86-.32,3.59,3.59,0,0,1-1.3-.91,3.73,3.73,0,0,1-.75-1.37,5.77,5.77,0,0,1-.24-1.7,4.62,4.62,0,0,1,.29-1.67,4,4,0,0,1,.84-1.37,4,4,0,0,1,1.28-.92,3.82,3.82,0,0,1,1.64-.34,3.56,3.56,0,0,1,1.37.26,2.93,2.93,0,0,1,1.06.72,3.38,3.38,0,0,1,.67,1.1,3.83,3.83,0,0,1,.24,1.37c0,.26-.09.38-.27.38Zm3.3-.63c.16,0,.26-.06.29-.18a2.63,2.63,0,0,0,0-.43A2.28,2.28,0,0,0,32.81,6a1.76,1.76,0,0,0-.33-.62A1.66,1.66,0,0,0,32,4.91a1.45,1.45,0,0,0-.7-.16,1.8,1.8,0,0,0-.84.17,1.75,1.75,0,0,0-.59.45,1.67,1.67,0,0,0-.37.65,3.57,3.57,0,0,0-.18.8,1.15,1.15,0,0,0,0,.35c0,.09,0,.13.08.13Z"/><path d="M42.51,10.58a2.52,2.52,0,0,0,.11.88.45.45,0,0,0,.46.25,1,1,0,0,0,.33,0,3.4,3.4,0,0,0,.36-.19.08.08,0,0,1,.11,0,.27.27,0,0,1,.11.1.61.61,0,0,1,.07.14.14.14,0,0,1,0,.14,2.11,2.11,0,0,1-1.66.84,1.43,1.43,0,0,1-.89-.28,1.79,1.79,0,0,1-.55-.65c0-.06-.06-.07-.11,0a4.22,4.22,0,0,1-1.08.68,4,4,0,0,1-1.56.27,2.12,2.12,0,0,1-1.58-.55A2,2,0,0,1,36,10.6a2.17,2.17,0,0,1,1.2-2,7.21,7.21,0,0,1,3.51-.7s0,0,.06-.09a3.69,3.69,0,0,0,0-.41V6.92a4.46,4.46,0,0,0-.07-.84,2.15,2.15,0,0,0-.24-.69A1.15,1.15,0,0,0,40,4.92a1.44,1.44,0,0,0-.75-.17A1.92,1.92,0,0,0,38.19,5a.77.77,0,0,0-.42.67.67.67,0,0,0,.13.39.71.71,0,0,1,.12.39.65.65,0,0,1-.25.48,1,1,0,0,1-1.3,0,1,1,0,0,1-.21-.64,1.68,1.68,0,0,1,.25-.86,2.27,2.27,0,0,1,.69-.69,3.54,3.54,0,0,1,1-.46,4.42,4.42,0,0,1,1.21-.17,3.55,3.55,0,0,1,2.27.66A2.71,2.71,0,0,1,42.51,7ZM40.81,8.8a1.36,1.36,0,0,0,0-.25.1.1,0,0,0-.09,0,4.5,4.5,0,0,0-2.19.62,1.55,1.55,0,0,0-.44,2.18,1.06,1.06,0,0,0,.9.37,2.58,2.58,0,0,0,.87-.17,2.45,2.45,0,0,0,.82-.46.41.41,0,0,0,.14-.29Z"/><path d="M47.73,10.34c0,.3,0,.56,0,.76a.89.89,0,0,0,.19.5,1,1,0,0,0,.51.31,4.4,4.4,0,0,0,1,.16.25.25,0,0,1,.16.1.32.32,0,0,1,0,.19.26.26,0,0,1,0,.17.17.17,0,0,1-.16.08c-.52,0-1,0-1.37-.06s-.78-.06-1.13-.06a10.93,10.93,0,0,0-1.15.06,10.88,10.88,0,0,1-1.14.06.17.17,0,0,1-.15-.08.34.34,0,0,1,0-.17.41.41,0,0,1,0-.19.27.27,0,0,1,.17-.1,3.11,3.11,0,0,0,.78-.16.75.75,0,0,0,.4-.3.93.93,0,0,0,.16-.46c0-.19,0-.42,0-.7V7.82c0-.58,0-1.05,0-1.39a2.11,2.11,0,0,0-.17-.79.66.66,0,0,0-.43-.37,3.9,3.9,0,0,0-.79-.13.14.14,0,0,1-.13-.09.35.35,0,0,1,0-.36.16.16,0,0,1,.15-.09l1-.08a6.9,6.9,0,0,0,1.31-.22.65.65,0,0,1,.41,0c.11,0,.15.14.14.3l0,1.16s0,0,0,0,0,0,.05,0a3.57,3.57,0,0,1,.93-1.2,2.22,2.22,0,0,1,1.46-.45A1.45,1.45,0,0,1,51,4.49a1.31,1.31,0,0,1,.36.94.81.81,0,0,1-.24.56.83.83,0,0,1-.66.25.72.72,0,0,1-.58-.2.64.64,0,0,1-.16-.43.68.68,0,0,0-.1-.4.5.5,0,0,0-.42-.14,1,1,0,0,0-.62.23,2,2,0,0,0-.48.53,3.07,3.07,0,0,0-.31.63,1.67,1.67,0,0,0-.1.5Z"/><path d="M54.82,10.34c0,.3,0,.56,0,.76a1.38,1.38,0,0,0,.1.5.55.55,0,0,0,.27.31,1.45,1.45,0,0,0,.53.16.25.25,0,0,1,.16.1.32.32,0,0,1,.05.19.26.26,0,0,1-.05.17.17.17,0,0,1-.16.08c-.12,0-.35,0-.68-.06a8.52,8.52,0,0,0-1-.06,10.1,10.1,0,0,0-1.12.06,9.22,9.22,0,0,1-1,.06.15.15,0,0,1-.14-.08.27.27,0,0,1-.06-.17.33.33,0,0,1,.06-.19.25.25,0,0,1,.16-.1,2.84,2.84,0,0,0,.69-.14.64.64,0,0,0,.36-.27.93.93,0,0,0,.14-.47c0-.19,0-.44,0-.74V8.18c0-.58,0-1.07,0-1.46A3.19,3.19,0,0,0,53,5.79a.77.77,0,0,0-.34-.48A1.36,1.36,0,0,0,52,5.18a.27.27,0,0,1-.18-.07.27.27,0,0,1-.06-.17.28.28,0,0,1,.06-.18A.27.27,0,0,1,52,4.69a5.73,5.73,0,0,0,1-.11,11.16,11.16,0,0,0,1.34-.3.31.31,0,0,1,.38.1.58.58,0,0,1,.13.38v.72a0,0,0,0,0,0,0s0,0,0,0a3.71,3.71,0,0,1,.35-.44,3.61,3.61,0,0,1,.54-.46,3.63,3.63,0,0,1,.71-.36,2.75,2.75,0,0,1,.88-.14,2.9,2.9,0,0,1,2.12.75,3.25,3.25,0,0,1,.77,2.42v3.07c0,.33,0,.59,0,.8a1.25,1.25,0,0,0,.13.49.65.65,0,0,0,.3.29,1.86,1.86,0,0,0,.59.15.23.23,0,0,1,.16.1.33.33,0,0,1,.06.19.27.27,0,0,1-.06.17.16.16,0,0,1-.16.08c-.16,0-.41,0-.77-.06a9.46,9.46,0,0,0-1.07-.06,9.73,9.73,0,0,0-1.1.06,7.61,7.61,0,0,1-.86.06.14.14,0,0,1-.14-.08.27.27,0,0,1-.06-.17.33.33,0,0,1,.06-.19.23.23,0,0,1,.16-.1,1.83,1.83,0,0,0,.6-.16.69.69,0,0,0,.31-.3,1.4,1.4,0,0,0,.12-.46c0-.19,0-.42,0-.7V7.72q0-.45,0-.9a2.53,2.53,0,0,0-.2-.81,1.63,1.63,0,0,0-.47-.6A1.4,1.4,0,0,0,57,5.18a2.48,2.48,0,0,0-1,.17,2,2,0,0,0-.68.46,2,2,0,0,0-.43.67,2.48,2.48,0,0,0-.14.82Z"/><path d="M55.57,22.85a2.79,2.79,0,0,0,.14,1.08.56.56,0,0,0,.56.31,1.16,1.16,0,0,0,.4-.06,3.23,3.23,0,0,0,.44-.23.12.12,0,0,1,.14,0,.46.46,0,0,1,.21.3.16.16,0,0,1-.05.16,2.55,2.55,0,0,1-2,1,1.74,1.74,0,0,1-1.09-.35,2.13,2.13,0,0,1-.67-.8c0-.07-.07-.08-.13,0a5,5,0,0,1-1.33.84,4.81,4.81,0,0,1-1.91.33,2.62,2.62,0,0,1-1.93-.68,2.51,2.51,0,0,1-.68-1.9,2.67,2.67,0,0,1,1.47-2.43,8.79,8.79,0,0,1,4.29-.85s.05,0,.07-.11a4.37,4.37,0,0,0,0-.5v-.6a5.64,5.64,0,0,0-.09-1,2.67,2.67,0,0,0-.3-.85,1.51,1.51,0,0,0-.58-.57,1.87,1.87,0,0,0-.92-.21,2.43,2.43,0,0,0-1.32.32,1,1,0,0,0-.51.83.87.87,0,0,0,.15.47.78.78,0,0,1,.16.47.82.82,0,0,1-.31.6,1.06,1.06,0,0,1-.75.28,1,1,0,0,1-.84-.32,1.2,1.2,0,0,1-.26-.78,1.91,1.91,0,0,1,.31-1,2.72,2.72,0,0,1,.84-.85,4.35,4.35,0,0,1,1.23-.56,5.12,5.12,0,0,1,1.47-.21,4.29,4.29,0,0,1,2.77.81,3.28,3.28,0,0,1,1,2.71ZM53.5,20.67a1.53,1.53,0,0,0,0-.3.13.13,0,0,0-.11-.05,5.59,5.59,0,0,0-2.68.76,1.89,1.89,0,0,0-.54,2.66,1.28,1.28,0,0,0,1.1.45,3,3,0,0,0,1.07-.2,3.1,3.1,0,0,0,1-.57.5.5,0,0,0,.18-.35Z"/><path d="M67.67,21.4c0,.6,0,1.09,0,1.46a2.2,2.2,0,0,0,.2.88.88.88,0,0,0,.49.44,2.83,2.83,0,0,0,.93.12.17.17,0,0,1,.14.1.43.43,0,0,1,.05.23.54.54,0,0,1,0,.22.16.16,0,0,1-.15.11H69l-.24,0-.27,0-.36,0-.48.09-.64.13c-.22.05-.43.08-.62.11l-.37.05c-.12,0-.21-.11-.29-.31a2.76,2.76,0,0,1-.11-.86c0-.07,0-.1,0-.09l-.1.07a5.34,5.34,0,0,1-1.32.9,3.84,3.84,0,0,1-1.56.29,4.27,4.27,0,0,1-1.75-.35,3.63,3.63,0,0,1-1.32-1,4.51,4.51,0,0,1-.84-1.53,6.42,6.42,0,0,1-.3-2A6.33,6.33,0,0,1,58.87,18a5,5,0,0,1,1.21-1.76,4.77,4.77,0,0,1,1.68-1,5.53,5.53,0,0,1,1.86-.33,5.07,5.07,0,0,1,1,.1,3.65,3.65,0,0,1,1,.34V14c0-.63,0-1.14,0-1.51a2,2,0,0,0-.23-.87,1,1,0,0,0-.57-.42,6.23,6.23,0,0,0-1-.17.18.18,0,0,1-.15-.11.63.63,0,0,1-.05-.22.54.54,0,0,1,0-.22.15.15,0,0,1,.16-.11l.81-.06.9-.07a8.46,8.46,0,0,0,.9-.14c.3-.05.58-.12.84-.19s.32,0,.39,0a.64.64,0,0,1,.12.25ZM65.6,16.93a2.94,2.94,0,0,0-.9-.78,2.52,2.52,0,0,0-1.17-.25,3.2,3.2,0,0,0-1.19.2,2,2,0,0,0-.89.68,3.52,3.52,0,0,0-.55,1.32,10.21,10.21,0,0,0-.19,2.11,7,7,0,0,0,.16,1.46A4.83,4.83,0,0,0,61.32,23a2.86,2.86,0,0,0,.73.9,1.52,1.52,0,0,0,1,.34,3.33,3.33,0,0,0,1.53-.32,3.42,3.42,0,0,0,1-.82Z"/><path d="M79,18.1q-1.47,3.63-3.15,7.41s0,.06-.12.08a.66.66,0,0,1-.21,0,.76.76,0,0,1-.21,0,.23.23,0,0,1-.12-.08C74.6,24.24,74,23,73.46,21.8s-1.1-2.48-1.66-3.86c-.15-.35-.27-.64-.38-.88a2.54,2.54,0,0,0-.36-.57,1.22,1.22,0,0,0-.44-.34A2.58,2.58,0,0,0,70,16a.23.23,0,0,1-.18-.12.38.38,0,0,1-.07-.21.59.59,0,0,1,0-.23.16.16,0,0,1,.15-.1,10.23,10.23,0,0,1,1.25.08,10.14,10.14,0,0,0,1.26.08,10.52,10.52,0,0,0,1.26-.08A10.69,10.69,0,0,1,75,15.3a.21.21,0,0,1,.17.1.59.59,0,0,1,0,.23.54.54,0,0,1,0,.22A.18.18,0,0,1,75,16a2,2,0,0,0-1,.26.69.69,0,0,0-.3.6,2.49,2.49,0,0,0,.18.82c.34.9.69,1.79,1.06,2.65s.74,1.67,1.12,2.43a.13.13,0,0,0,.13.1.17.17,0,0,0,.13-.1c.15-.32.32-.72.51-1.19s.37-1,.56-1.44.35-1,.52-1.46.29-.91.39-1.26a1.81,1.81,0,0,0,.09-.55c0-.36-.11-.59-.33-.68a2.73,2.73,0,0,0-.68-.18.24.24,0,0,1-.2-.13.43.43,0,0,1-.06-.22.6.6,0,0,1,.08-.21.22.22,0,0,1,.18-.1,5.11,5.11,0,0,1,.9.08,5,5,0,0,0,.88.08,7.47,7.47,0,0,0,1-.08A6.68,6.68,0,0,1,81,15.3a.21.21,0,0,1,.19.1.59.59,0,0,1,.05.23.54.54,0,0,1-.05.22A.18.18,0,0,1,81,16a1.57,1.57,0,0,0-.73.2,1.88,1.88,0,0,0-.52.45,3.5,3.5,0,0,0-.4.66C79.27,17.53,79.16,17.8,79,18.1Z"/><path d="M89.73,22.85a3,3,0,0,0,.14,1.08.58.58,0,0,0,.57.31,1.07,1.07,0,0,0,.39-.06,2.73,2.73,0,0,0,.44-.23.12.12,0,0,1,.14,0,.41.41,0,0,1,.14.12.48.48,0,0,1,.07.18.16.16,0,0,1,0,.16,2.57,2.57,0,0,1-2,1,1.74,1.74,0,0,1-1.09-.35,2,2,0,0,1-.67-.8c0-.07-.08-.08-.14,0a4.86,4.86,0,0,1-1.33.84,4.76,4.76,0,0,1-1.9.33,2.65,2.65,0,0,1-1.94-.68,2.55,2.55,0,0,1-.68-1.9,2.66,2.66,0,0,1,1.48-2.43,8.79,8.79,0,0,1,4.29-.85s0,0,.06-.11a2.79,2.79,0,0,0,0-.5v-.6a6.72,6.72,0,0,0-.08-1,2.67,2.67,0,0,0-.3-.85,1.59,1.59,0,0,0-.58-.57,1.88,1.88,0,0,0-.93-.21,2.48,2.48,0,0,0-1.32.32.94.94,0,0,0-.5.83.87.87,0,0,0,.15.47A.77.77,0,0,1,84,18.41a1.08,1.08,0,0,1-.75.28,1,1,0,0,1-.85-.32,1.2,1.2,0,0,1-.25-.78,1.91,1.91,0,0,1,.31-1,2.69,2.69,0,0,1,.83-.85,4.35,4.35,0,0,1,1.23-.56A5.14,5.14,0,0,1,86,14.93a4.33,4.33,0,0,1,2.77.81,3.31,3.31,0,0,1,1,2.71Zm-2.07-2.18a1,1,0,0,0,0-.3s0-.05-.11-.05a5.59,5.59,0,0,0-2.67.76,1.89,1.89,0,0,0-.54,2.66,1.28,1.28,0,0,0,1.1.45,3.05,3.05,0,0,0,1.07-.2,3.21,3.21,0,0,0,1-.57.52.52,0,0,0,.17-.35Z"/><path d="M96,22.56q0,.56,0,.93a1.69,1.69,0,0,0,.12.61.68.68,0,0,0,.33.38,2,2,0,0,0,.65.2.25.25,0,0,1,.19.12.38.38,0,0,1,0,.44.23.23,0,0,1-.19.1c-.15,0-.43,0-.83-.08a10.14,10.14,0,0,0-1.26-.08,12.16,12.16,0,0,0-1.37.08,11,11,0,0,1-1.23.08.24.24,0,0,1-.18-.1.42.42,0,0,1-.06-.21.41.41,0,0,1,.06-.23.27.27,0,0,1,.2-.12,4.51,4.51,0,0,0,.85-.18.83.83,0,0,0,.44-.33,1.2,1.2,0,0,0,.16-.57q0-.36,0-.9V19.92c0-.71,0-1.31,0-1.79A4.06,4.06,0,0,0,93.78,17a.94.94,0,0,0-.42-.58,1.53,1.53,0,0,0-.81-.17.26.26,0,0,1-.21-.09.3.3,0,0,1-.08-.2.35.35,0,0,1,.08-.22.29.29,0,0,1,.21-.08,8.2,8.2,0,0,0,1.22-.14,13.2,13.2,0,0,0,1.64-.37.38.38,0,0,1,.46.12.8.8,0,0,1,.15.47v.88a.05.05,0,0,0,0,.06s0,0,0,0a3.16,3.16,0,0,1,.43-.54,3.36,3.36,0,0,1,.66-.56,3.55,3.55,0,0,1,.87-.44,3.06,3.06,0,0,1,1.08-.18,3.52,3.52,0,0,1,2.58.91,4,4,0,0,1,.94,3v3.76c0,.4,0,.72,0,1a1.65,1.65,0,0,0,.15.61.86.86,0,0,0,.38.35,2.85,2.85,0,0,0,.71.19.25.25,0,0,1,.2.12.38.38,0,0,1,0,.44.23.23,0,0,1-.2.1c-.19,0-.5,0-.93-.08a11,11,0,0,0-2.65,0,9.66,9.66,0,0,1-1.06.08.21.21,0,0,1-.17-.1.38.38,0,0,1,0-.44.23.23,0,0,1,.19-.12,2.4,2.4,0,0,0,.74-.2.83.83,0,0,0,.37-.37,1.32,1.32,0,0,0,.15-.57c0-.22,0-.51,0-.84V19.35c0-.36,0-.73,0-1.1a3,3,0,0,0-.25-1,1.83,1.83,0,0,0-.57-.72,1.6,1.6,0,0,0-1-.29,3,3,0,0,0-1.16.21,2.48,2.48,0,0,0-.83.56,2.34,2.34,0,0,0-.52.82,2.83,2.83,0,0,0-.18,1Z"/><path d="M107.86,19.84a6.41,6.41,0,0,0,.2,1.59,4.09,4.09,0,0,0,.6,1.34,3,3,0,0,0,1,.93,3.3,3.3,0,0,0,1.54.34,9.29,9.29,0,0,0,1.5-.12,2.48,2.48,0,0,0,1.25-.56.19.19,0,0,1,.2-.06.45.45,0,0,1,.19.11.43.43,0,0,1,.13.19.21.21,0,0,1,0,.2,3.59,3.59,0,0,1-1.69,1.3,6.85,6.85,0,0,1-2.29.35,6,6,0,0,1-1.76-.27,4.16,4.16,0,0,1-1.59-.88A4.38,4.38,0,0,1,106,22.66a6.5,6.5,0,0,1-.44-2.54,5.67,5.67,0,0,1,.36-2A4.59,4.59,0,0,1,107,16.44a4.9,4.9,0,0,1,1.7-1.1,6.3,6.3,0,0,1,2.34-.41,5.13,5.13,0,0,1,1.24.15,4.38,4.38,0,0,1,1.08.45,2.56,2.56,0,0,1,.76.74,1.81,1.81,0,0,1,.28,1,1.24,1.24,0,0,1-.26.75,1,1,0,0,1-.84.35,1.17,1.17,0,0,1-.76-.24.85.85,0,0,1-.29-.7.76.76,0,0,1,.16-.51.61.61,0,0,0,.17-.37c0-.27-.18-.47-.53-.61a3.13,3.13,0,0,0-1.17-.21,2.64,2.64,0,0,0-1.4.35,3,3,0,0,0-.92.94,4.28,4.28,0,0,0-.52,1.32A7.51,7.51,0,0,0,107.86,19.84Z"/><path d="M118.09,19.62c-.07,0-.11,0-.12.07a1.09,1.09,0,0,0,0,.19,6.44,6.44,0,0,0,.25,1.94,3.49,3.49,0,0,0,.7,1.28,2.64,2.64,0,0,0,1.08.72,4.26,4.26,0,0,0,1.36.22,8.69,8.69,0,0,0,1.45-.12,2.53,2.53,0,0,0,1.21-.54.29.29,0,0,1,.23-.07.4.4,0,0,1,.2.11.4.4,0,0,1,.09.2.24.24,0,0,1,0,.2,3.81,3.81,0,0,1-1.58,1.27,5.81,5.81,0,0,1-2.18.36,6,6,0,0,1-2.28-.4,4.11,4.11,0,0,1-1.58-1.11,4.64,4.64,0,0,1-.93-1.67,7.26,7.26,0,0,1-.29-2.08,5.86,5.86,0,0,1,.36-2.05,4.86,4.86,0,0,1,2.59-2.79,4.65,4.65,0,0,1,2-.42,4.37,4.37,0,0,1,1.68.32,3.57,3.57,0,0,1,1.29.88,4,4,0,0,1,.82,1.34,4.64,4.64,0,0,1,.3,1.68c0,.31-.11.47-.33.47Zm4-.77c.21,0,.33-.08.36-.22a2.79,2.79,0,0,0,0-.53,2.91,2.91,0,0,0-.14-.89,2.42,2.42,0,0,0-.41-.76,2,2,0,0,0-.64-.53,1.81,1.81,0,0,0-.85-.2,2.34,2.34,0,0,0-1,.21,2.19,2.19,0,0,0-.72.55,2.33,2.33,0,0,0-.45.8,4.42,4.42,0,0,0-.22,1,1.84,1.84,0,0,0,0,.43c0,.11,0,.17.1.17Z"/><path d="M95.77,29.76a2.12,2.12,0,0,1,.3.67,2.85,2.85,0,0,1,.12.71,2.64,2.64,0,0,1-.25,1.16,2.46,2.46,0,0,1-.68.85,3,3,0,0,1-1,.52,3.79,3.79,0,0,1-1.18.18l-.47,0a4.87,4.87,0,0,0-.55.06,1.67,1.67,0,0,0-.46.14.31.31,0,0,0-.19.28.25.25,0,0,0,.15.22,1.42,1.42,0,0,0,.37.15,3.21,3.21,0,0,0,.43.07,2.57,2.57,0,0,0,.36,0c.72,0,1.36.12,1.93.19a5.77,5.77,0,0,1,1.45.37,2.12,2.12,0,0,1,.91.71,2.06,2.06,0,0,1,.31,1.19,2.84,2.84,0,0,1-.25,1.2,2.62,2.62,0,0,1-.77,1,3.78,3.78,0,0,1-1.25.64,5.64,5.64,0,0,1-1.72.23,6.83,6.83,0,0,1-1.48-.14,3.61,3.61,0,0,1-1.17-.44A2.21,2.21,0,0,1,90,39a2.28,2.28,0,0,1-.26-1.11,2.11,2.11,0,0,1,.11-.68,2,2,0,0,1,.28-.55,2.33,2.33,0,0,1,.41-.42,2.19,2.19,0,0,1,.46-.31,2.13,2.13,0,0,1-.63-.34.82.82,0,0,1-.28-.7,1.06,1.06,0,0,1,.15-.58,1.31,1.31,0,0,1,.42-.39,2.18,2.18,0,0,1,.59-.22,4.66,4.66,0,0,1,.64-.08s0,0,0,0h0a2.9,2.9,0,0,1-1.2-.83,2.23,2.23,0,0,1-.44-1.44,2.65,2.65,0,0,1,.23-1.11,2.46,2.46,0,0,1,.63-.86,3.11,3.11,0,0,1,1-.55,4.06,4.06,0,0,1,1.29-.19,3,3,0,0,1,1.27.22,3.56,3.56,0,0,1,.86.59,2.6,2.6,0,0,1,.68-.48,1.92,1.92,0,0,1,.87-.2l.36,0a1.21,1.21,0,0,1,.38.12.74.74,0,0,1,.28.21.52.52,0,0,1,.12.36.81.81,0,0,1-.14.46.57.57,0,0,1-.52.2.47.47,0,0,1-.38-.12A.85.85,0,0,1,97,29.7a2,2,0,0,0-.11-.26c0-.08-.13-.12-.28-.12a1.07,1.07,0,0,0-.48.12A.87.87,0,0,0,95.77,29.76ZM91.7,36a1.41,1.41,0,0,0-.4.6,2.16,2.16,0,0,0-.15.78,1.88,1.88,0,0,0,.23,1,2,2,0,0,0,.61.69,2.45,2.45,0,0,0,.86.41,3.72,3.72,0,0,0,1,.14,2.37,2.37,0,0,0,1.54-.56,2,2,0,0,0,.48-.6,1.6,1.6,0,0,0,.18-.75,1.05,1.05,0,0,0-.34-.82,2.3,2.3,0,0,0-.92-.5,7,7,0,0,0-1.38-.25C92.88,36.1,92.31,36.06,91.7,36Zm1.44-2.74a1.25,1.25,0,0,0,1.12-.51,2.76,2.76,0,0,0,.34-1.49,6.17,6.17,0,0,0-.06-.9,1.93,1.93,0,0,0-.2-.69,1,1,0,0,0-.4-.45,1.09,1.09,0,0,0-.63-.16,1.41,1.41,0,0,0-.78.2,1.5,1.5,0,0,0-.45.52,2.22,2.22,0,0,0-.23.7,5.09,5.09,0,0,0-.06.77,2.68,2.68,0,0,0,.35,1.5A1.13,1.13,0,0,0,93.14,33.3Z"/><path d="M101.05,33.76c0,.25,0,.46,0,.63a.72.72,0,0,0,.16.42.87.87,0,0,0,.42.26,4,4,0,0,0,.82.13.19.19,0,0,1,.14.09.24.24,0,0,1,0,.15.28.28,0,0,1,0,.15.17.17,0,0,1-.14.06,9.76,9.76,0,0,1-1.14,0c-.33,0-.64-.05-.94-.05s-.64,0-1,.05a7.72,7.72,0,0,1-1,0,.14.14,0,0,1-.12-.06.28.28,0,0,1,0-.15.24.24,0,0,1,0-.15.19.19,0,0,1,.14-.09,2.73,2.73,0,0,0,.65-.13.69.69,0,0,0,.34-.25.75.75,0,0,0,.12-.39,4.62,4.62,0,0,0,0-.58V31.66c0-.49,0-.87,0-1.16a1.79,1.79,0,0,0-.15-.66.57.57,0,0,0-.35-.31,3.08,3.08,0,0,0-.66-.1.12.12,0,0,1-.11-.08.3.3,0,0,1,0-.3.13.13,0,0,1,.13-.07l.83-.07a5.43,5.43,0,0,0,1.09-.19.57.57,0,0,1,.34,0c.09,0,.13.11.12.25l0,1s0,0,0,0,0,0,0,0a3.1,3.1,0,0,1,.77-1,1.9,1.9,0,0,1,1.23-.37,1.23,1.23,0,0,1,.93.32,1.13,1.13,0,0,1,.3.79.66.66,0,0,1-.2.46.71.71,0,0,1-.55.21.59.59,0,0,1-.48-.16.56.56,0,0,1-.14-.36.62.62,0,0,0-.08-.33.41.41,0,0,0-.35-.12.78.78,0,0,0-.52.19,1.68,1.68,0,0,0-.4.44,2.26,2.26,0,0,0-.25.52,1.44,1.44,0,0,0-.09.42Z"/><path d="M111.55,32a4.75,4.75,0,0,1-.26,1.62,3.14,3.14,0,0,1-.73,1.18,3,3,0,0,1-1.13.73,4,4,0,0,1-1.47.25,3.66,3.66,0,0,1-1.3-.23,3,3,0,0,1-1-.69,3.31,3.31,0,0,1-.69-1.16,4.75,4.75,0,0,1-.25-1.64,3.71,3.71,0,0,1,.25-1.4,3.17,3.17,0,0,1,.71-1.09,3.35,3.35,0,0,1,1.11-.71,3.8,3.8,0,0,1,1.41-.25,3.9,3.9,0,0,1,1.35.22,3,3,0,0,1,1.08.66,2.89,2.89,0,0,1,.7,1A3.88,3.88,0,0,1,111.55,32Zm-1.58.16A8.07,8.07,0,0,0,109.9,31a3.37,3.37,0,0,0-.27-1,1.71,1.71,0,0,0-.54-.67,1.47,1.47,0,0,0-.89-.26,1.68,1.68,0,0,0-1,.26,1.88,1.88,0,0,0-.6.68,3.55,3.55,0,0,0-.3,1,8.09,8.09,0,0,0-.08,1.12,7.65,7.65,0,0,0,.08,1,3.29,3.29,0,0,0,.28,1,2,2,0,0,0,.58.72,1.48,1.48,0,0,0,.94.28,1.52,1.52,0,0,0,.94-.27,1.76,1.76,0,0,0,.56-.7,3,3,0,0,0,.27-1A8.27,8.27,0,0,0,110,32.11Z"/><path d="M118.1,28.9c.32.75.64,1.5,1,2.25s.62,1.49.94,2.24c0,.07.05.1.1.09a.15.15,0,0,0,.1-.09c.17-.54.31-1.06.44-1.56s.24-1,.35-1.52a1.77,1.77,0,0,0,.06-.43c0-.23-.06-.38-.18-.44a1.72,1.72,0,0,0-.57-.16.2.2,0,0,1-.15-.09.28.28,0,0,1,0-.15.24.24,0,0,1,.05-.16.17.17,0,0,1,.14-.07,3.37,3.37,0,0,1,.66.06,3.05,3.05,0,0,0,.6.06,3.72,3.72,0,0,0,.64-.06,3.25,3.25,0,0,1,.55-.06.13.13,0,0,1,.12.07.34.34,0,0,1,0,.32c0,.05,0,.08-.09.08a1.46,1.46,0,0,0-.51.14,1.12,1.12,0,0,0-.34.31,1.61,1.61,0,0,0-.24.45c-.07.17-.13.35-.19.55q-.75,2.56-1.6,5.09c0,.06-.09.09-.19.1s-.17,0-.19-.09c-.29-.79-.58-1.57-.88-2.35s-.64-1.59-1-2.42a.09.09,0,0,0-.18,0l-.51,1.32-.46,1.19-.42,1.12-.42,1.14c0,.06-.09.1-.2.1s-.17,0-.19-.1c-.31-.88-.62-1.75-.91-2.61s-.58-1.73-.85-2.59a6.59,6.59,0,0,0-.23-.62,1.75,1.75,0,0,0-.25-.39.84.84,0,0,0-.31-.22,2.1,2.1,0,0,0-.42-.12.14.14,0,0,1-.11-.09.4.4,0,0,1,0-.15.41.41,0,0,1,0-.16.12.12,0,0,1,.11-.07,5.19,5.19,0,0,1,.77.06,5.49,5.49,0,0,0,.83.06,6,6,0,0,0,.85-.06,5.69,5.69,0,0,1,.83-.06.15.15,0,0,1,.12.07.3.3,0,0,1,0,.15.22.22,0,0,1,0,.16.19.19,0,0,1-.14.09,1.36,1.36,0,0,0-.61.19.45.45,0,0,0-.18.38,1.22,1.22,0,0,0,0,.26c0,.1,0,.2.07.31.14.51.29,1,.44,1.5s.32,1,.49,1.47a.11.11,0,0,0,.11.09.12.12,0,0,0,.12-.08q.87-2.37,1.74-4.48a.16.16,0,0,1,.16-.11A.18.18,0,0,1,118.1,28.9Z"/></g></g></svg>