<svg xmlns="http://www.w3.org/2000/svg" viewBox="0 0 30.95 31"><title>palette</title><g id="Layer_2" data-name="Layer 2"><g id="Layer_1-2" data-name="Layer 1"><g id="FLK6Gk.tif"><path d="M25.75,20.68c-.87,0-1.73,0-2.59,0a2.53,2.53,0,0,0-2.5,2.52c0,1.27,0,2.55,0,3.83a3.88,3.88,0,0,1-3.93,4,16.1,16.1,0,0,1-8.56-1.85,15.05,15.05,0,0,1-8-11.49,15.47,15.47,0,0,1,30.57-4.72,30.81,30.81,0,0,1,.2,5.44,2.46,2.46,0,0,1-2.48,2.29c-.9,0-1.8,0-2.7,0ZM11.62,25.22a3.23,3.23,0,0,0,3.24,3.21,3.25,3.25,0,1,0-.08-6.49A3.24,3.24,0,0,0,11.62,25.22ZM15.47,7.74a2.59,2.59,0,0,0,2.6-2.55,2.59,2.59,0,1,0-5.18,0A2.58,2.58,0,0,0,15.47,7.74ZM7.72,15.5a2.59,2.59,0,0,0-2.56-2.59,2.59,2.59,0,1,0,0,5.18A2.59,2.59,0,0,0,7.72,15.5ZM25.8,12.91a2.59,2.59,0,0,0,.05,5.18,2.59,2.59,0,0,0-.05-5.18ZM8.18,10.77A2.57,2.57,0,0,0,10.75,8.2,2.6,2.6,0,0,0,8.2,5.6,2.66,2.66,0,0,0,5.58,8.22,2.59,2.59,0,0,0,8.18,10.77Zm14.6,0a2.6,2.6,0,0,0,2.6-2.56A2.65,2.65,0,0,0,22.81,5.6a2.59,2.59,0,1,0,0,5.17Z"/></g></g></g></svg>