<svg xmlns="http://www.w3.org/2000/svg" viewBox="0 0 170.58 41.71"><title>resposive</title><g id="Layer_2" data-name="Layer 2"><g id="xd"><path d="M13,35.36,1.1,27.19a2.51,2.51,0,0,1-.85-.78A1.66,1.66,0,0,1,0,25.48v-.65a1.71,1.71,0,0,1,.25-.93,3,3,0,0,1,.85-.81L13,14.92l.38-.21a1,1,0,0,1,.53-.17.8.8,0,0,1,.57.21.72.72,0,0,1,.23.55v1.55a1.09,1.09,0,0,1-.21.69,2.7,2.7,0,0,1-.67.57l-10.26,7,10.26,7a2.93,2.93,0,0,1,.69.61,1.1,1.1,0,0,1,.19.64V35a.78.78,0,0,1-.23.59.8.8,0,0,1-.57.21A2.12,2.12,0,0,1,13,35.36Z"/><path d="M136.35,41.48a.7.7,0,0,1-.23-.53,1.62,1.62,0,0,1,.11-.46l13-31.2a1.06,1.06,0,0,1,1-.64h1.4a.77.77,0,0,1,.76.76,1.57,1.57,0,0,1-.11.45l-13,31.2a1,1,0,0,1-.32.44,1,1,0,0,1-.66.21h-1.37A.74.74,0,0,1,136.35,41.48Z"/><path d="M156.14,35.55a.77.77,0,0,1-.22-.57V33.42a1,1,0,0,1,.19-.64,2.66,2.66,0,0,1,.68-.61l10.26-7-10.26-7a2.89,2.89,0,0,1-.67-.57,1.09,1.09,0,0,1-.2-.69V15.3a.73.73,0,0,1,.2-.55.76.76,0,0,1,.56-.21,1.17,1.17,0,0,1,.55.17l.4.21,11.85,8.17a3.09,3.09,0,0,1,.86.81,1.79,1.79,0,0,1,.24.93v.65a1.74,1.74,0,0,1-.24.93,2.56,2.56,0,0,1-.86.78l-11.85,8.17a2,2,0,0,1-.95.42A.76.76,0,0,1,156.14,35.55Z"/><text transform="translate(18.45 21.89)" style="font-size:26px;font-family:PlantagenetCherokee, Plantagenet Cherokee">responsive</text><text transform="translate(98.81 33.61)" style="font-size:13px;font-family:PlantagenetCherokee, Plantagenet Cherokee">design</text></g></g></svg>