<svg xmlns="http://www.w3.org/2000/svg" viewBox="0 0 170.58 37.31"><title>responsive</title><g id="Layer_2" data-name="Layer 2"><g id="xd"><path d="M13,31,1.1,22.8A2.73,2.73,0,0,1,.25,22,1.71,1.71,0,0,1,0,21.09v-.65a1.71,1.71,0,0,1,.25-.93,2.91,2.91,0,0,1,.85-.82L13,10.52l.38-.21a1.16,1.16,0,0,1,.53-.17.8.8,0,0,1,.57.21.73.73,0,0,1,.23.55v1.56a1,1,0,0,1-.21.68,2.93,2.93,0,0,1-.67.58l-10.26,7,10.26,7a3.17,3.17,0,0,1,.69.61,1.16,1.16,0,0,1,.19.65v1.56a.78.78,0,0,1-.23.59.8.8,0,0,1-.57.21A2.12,2.12,0,0,1,13,31Z"/><path d="M136.35,37.09a.72.72,0,0,1-.23-.54,1.57,1.57,0,0,1,.11-.45l13-31.2a1.07,1.07,0,0,1,1-.65h1.4a.74.74,0,0,1,.53.23.7.7,0,0,1,.23.53,1.62,1.62,0,0,1-.11.46l-13,31.2a1,1,0,0,1-.32.43,1,1,0,0,1-.66.21h-1.37A.73.73,0,0,1,136.35,37.09Z"/><path d="M156.14,31.16a.77.77,0,0,1-.22-.57V29a1.08,1.08,0,0,1,.19-.65,2.66,2.66,0,0,1,.68-.6l10.26-7-10.26-7a3.48,3.48,0,0,1-.67-.57,1.09,1.09,0,0,1-.2-.69V10.9a.75.75,0,0,1,.2-.55.76.76,0,0,1,.56-.21,1.3,1.3,0,0,1,.55.17,3.3,3.3,0,0,0,.4.21l11.85,8.17a3,3,0,0,1,.86.82,1.79,1.79,0,0,1,.24.93v.65a1.79,1.79,0,0,1-.24.93,2.78,2.78,0,0,1-.86.78L157.63,31a2,2,0,0,1-.95.42A.76.76,0,0,1,156.14,31.16Z"/><path d="M23.49,14.35c0,.44,0,.8,0,1.09a1.36,1.36,0,0,0,.27.73,1.49,1.49,0,0,0,.73.44,6.43,6.43,0,0,0,1.43.24.35.35,0,0,1,.24.14.5.5,0,0,1,.07.27.45.45,0,0,1-.07.25.27.27,0,0,1-.24.12,19.08,19.08,0,0,1-2-.09,15.88,15.88,0,0,0-1.64-.09,14.93,14.93,0,0,0-1.65.09,15.2,15.2,0,0,1-1.65.09.24.24,0,0,1-.21-.12.46.46,0,0,1-.08-.25.5.5,0,0,1,.08-.27.33.33,0,0,1,.23-.14,4.21,4.21,0,0,0,1.13-.24,1.13,1.13,0,0,0,.59-.43,1.48,1.48,0,0,0,.22-.67,9.41,9.41,0,0,0,0-1v-3.8c0-.85,0-1.52-.05-2a3.34,3.34,0,0,0-.25-1.15A1,1,0,0,0,20.14,7,4.86,4.86,0,0,0,19,6.84a.22.22,0,0,1-.19-.13.52.52,0,0,1,0-.52A.22.22,0,0,1,19,6.06q.53-.06,1.44-.12a9.83,9.83,0,0,0,1.89-.32,1,1,0,0,1,.6,0c.15,0,.22.2.2.44l0,1.67a.06.06,0,0,0,0,.06s0,0,.08,0A5.11,5.11,0,0,1,24.55,6a3.22,3.22,0,0,1,2.11-.65,2.14,2.14,0,0,1,1.62.56,2,2,0,0,1,.52,1.36,1.18,1.18,0,0,1-.34.81,1.27,1.27,0,0,1-1,.36,1,1,0,0,1-.84-.28,1,1,0,0,1-.23-.63,1,1,0,0,0-.14-.57.71.71,0,0,0-.61-.21,1.39,1.39,0,0,0-.9.33,3.18,3.18,0,0,0-.69.77,3.64,3.64,0,0,0-.44.91,2.31,2.31,0,0,0-.16.72Z"/><path d="M32.67,10.87c-.09,0-.13,0-.14.09a1.27,1.27,0,0,0,0,.22,7.62,7.62,0,0,0,.3,2.29A4,4,0,0,0,33.65,15a3,3,0,0,0,1.27.84,4.63,4.63,0,0,0,1.6.26A9.74,9.74,0,0,0,38.24,16a3,3,0,0,0,1.43-.64.33.33,0,0,1,.27-.07.36.36,0,0,1,.23.13.51.51,0,0,1,.12.23.27.27,0,0,1,0,.23,4.41,4.41,0,0,1-1.88,1.51,6.88,6.88,0,0,1-2.57.42,7,7,0,0,1-2.69-.47A5,5,0,0,1,31.23,16a5.33,5.33,0,0,1-1.09-2,8,8,0,0,1-.36-2.46,7,7,0,0,1,.43-2.41,5.93,5.93,0,0,1,1.21-2,6,6,0,0,1,1.85-1.33,5.69,5.69,0,0,1,2.36-.49,5.11,5.11,0,0,1,2,.38,4.2,4.2,0,0,1,1.52,1,4.64,4.64,0,0,1,1,1.58,5.66,5.66,0,0,1,.35,2c0,.37-.13.55-.39.55ZM37.43,10c.24,0,.38-.09.41-.26a2.8,2.8,0,0,0,.06-.63A3.39,3.39,0,0,0,37.73,8a3.22,3.22,0,0,0-.48-.9,2.41,2.41,0,0,0-.76-.62,2.06,2.06,0,0,0-1-.23,2.58,2.58,0,0,0-2.07.89,2.84,2.84,0,0,0-.53.95,6.2,6.2,0,0,0-.26,1.15,1.88,1.88,0,0,0,0,.5c0,.13.05.2.12.2Z"/><path d="M50.46,5.72a5.92,5.92,0,0,0-.15.7,6.23,6.23,0,0,0-.06.89c0,.33,0,.67,0,1s0,.63,0,.82a.16.16,0,0,1-.1.13.61.61,0,0,1-.24.07.43.43,0,0,1-.23,0c-.07,0-.12-.06-.13-.12a4.69,4.69,0,0,0-.94-2.12,2.65,2.65,0,0,0-2.08-.74A2.44,2.44,0,0,0,45,6.83a1.53,1.53,0,0,0-.63,1.28,1.18,1.18,0,0,0,.52,1,6.33,6.33,0,0,0,1.38.68l.87.32.82.33c.45.21.87.42,1.26.65a4.21,4.21,0,0,1,1,.79,3.27,3.27,0,0,1,.93,2.35,3,3,0,0,1-.42,1.65A3.29,3.29,0,0,1,49.68,17a4.69,4.69,0,0,1-1.49.59,7.34,7.34,0,0,1-3.14,0,6.13,6.13,0,0,1-1.46-.44.38.38,0,0,0-.32.05.55.55,0,0,0-.23.39s0,.09-.11.11l-.25,0a.52.52,0,0,1-.21,0c-.07,0-.1-.06-.1-.11a5.41,5.41,0,0,1,.05-.58,4,4,0,0,0,0-.67,5.76,5.76,0,0,0,0-.69c0-.25,0-.5-.07-.74s0-.46-.07-.65,0-.33,0-.42a.16.16,0,0,1,.11-.15.62.62,0,0,1,.23-.07.52.52,0,0,1,.25,0,.17.17,0,0,1,.14.14,6.47,6.47,0,0,0,.47,1.33,3.18,3.18,0,0,0,.72,1,2.7,2.7,0,0,0,1,.58,4.79,4.79,0,0,0,1.47.2,2.24,2.24,0,0,0,1.52-.52,1.85,1.85,0,0,0,.58-1.46,1.6,1.6,0,0,0-.58-1.31,6.78,6.78,0,0,0-1.37-.85l-.74-.31-.77-.31-1.13-.48a4.46,4.46,0,0,1-1-.61,2.72,2.72,0,0,1-.68-.91,3.07,3.07,0,0,1-.27-1.35,2.94,2.94,0,0,1,.41-1.59,3.26,3.26,0,0,1,1-1.05,4.49,4.49,0,0,1,1.42-.59,6.79,6.79,0,0,1,1.53-.18A4.58,4.58,0,0,1,48,5.5a5,5,0,0,1,1.23.61.36.36,0,0,0,.27,0c.12,0,.21-.19.28-.43,0-.07.07-.11.15-.13a.77.77,0,0,1,.26,0,.61.61,0,0,1,.24.06A.11.11,0,0,1,50.46,5.72Z"/><path d="M54.25,11.23c0-.85,0-1.55,0-2.12A4.53,4.53,0,0,0,54,7.77a1.28,1.28,0,0,0-.54-.71,2.25,2.25,0,0,0-1.05-.25.2.2,0,0,1-.2-.13.58.58,0,0,1-.06-.26.63.63,0,0,1,.05-.26c0-.08.08-.13.15-.13.38,0,.89-.09,1.51-.17a15,15,0,0,0,1.82-.32,1,1,0,0,1,.56,0c.13,0,.21.2.25.44l.1,1.38s0,.06.08,0a4.49,4.49,0,0,1,1.44-1.44,4.09,4.09,0,0,1,2.28-.61,4.22,4.22,0,0,1,2,.48,4.37,4.37,0,0,1,1.47,1.3A5.87,5.87,0,0,1,64.79,9a8.08,8.08,0,0,1,.3,2.21,8.38,8.38,0,0,1-.39,2.6,6.48,6.48,0,0,1-1.11,2.08,5.12,5.12,0,0,1-4,1.87,7.56,7.56,0,0,1-1.43-.12,9.17,9.17,0,0,1-1.25-.32c-.09,0-.14,0-.16,0a.73.73,0,0,0,0,.26v4c0,.44,0,.8,0,1.1a1.44,1.44,0,0,0,.25.72,1.4,1.4,0,0,0,.65.45,5.82,5.82,0,0,0,1.28.23.34.34,0,0,1,.22.14.54.54,0,0,1,.06.25.43.43,0,0,1-.08.27.23.23,0,0,1-.2.12A16.68,16.68,0,0,1,57,24.74a12.29,12.29,0,0,0-1.49-.09,14.39,14.39,0,0,0-1.59.09,14.62,14.62,0,0,1-1.64.09.23.23,0,0,1-.2-.12.5.5,0,0,1-.08-.27.46.46,0,0,1,.08-.25.36.36,0,0,1,.23-.14,4.71,4.71,0,0,0,1.13-.23,1.25,1.25,0,0,0,.59-.43,1.4,1.4,0,0,0,.21-.68c0-.27,0-.6,0-1Zm2.45,3.43a1.31,1.31,0,0,0,.18.56,2.51,2.51,0,0,0,.53.68,3.22,3.22,0,0,0,.86.57,2.54,2.54,0,0,0,1.16.25,2.2,2.2,0,0,0,1.36-.42,3,3,0,0,0,.91-1.14,6.58,6.58,0,0,0,.51-1.69,13.18,13.18,0,0,0,.15-2,7.35,7.35,0,0,0-.59-3.32,2.11,2.11,0,0,0-2-1.1,3.24,3.24,0,0,0-1.23.22,3.34,3.34,0,0,0-1,.57,2.64,2.64,0,0,0-.64.84,2.13,2.13,0,0,0-.23,1Z"/><path d="M78.9,11.21a8.31,8.31,0,0,1-.44,2.8,5.77,5.77,0,0,1-1.26,2.06,5.55,5.55,0,0,1-2,1.26,7.11,7.11,0,0,1-2.55.43,6.43,6.43,0,0,1-2.26-.4,4.87,4.87,0,0,1-1.79-1.2,5.89,5.89,0,0,1-1.2-2A8.45,8.45,0,0,1,67,11.31a6.6,6.6,0,0,1,.44-2.43A5.5,5.5,0,0,1,68.67,7a5.69,5.69,0,0,1,1.91-1.22A6.66,6.66,0,0,1,73,5.33a6.91,6.91,0,0,1,2.36.39,5.36,5.36,0,0,1,1.85,1.13,5.27,5.27,0,0,1,1.23,1.83A6.8,6.8,0,0,1,78.9,11.21Zm-2.73.28A15,15,0,0,0,76,9.57a5.83,5.83,0,0,0-.47-1.67,3,3,0,0,0-.94-1.17,2.52,2.52,0,0,0-1.53-.44,3,3,0,0,0-1.69.44,3.14,3.14,0,0,0-1,1.19,5.63,5.63,0,0,0-.52,1.67,13.77,13.77,0,0,0-.14,1.95,12.68,12.68,0,0,0,.13,1.82,5.75,5.75,0,0,0,.49,1.69,3.45,3.45,0,0,0,1,1.25,2.55,2.55,0,0,0,1.62.5,2.68,2.68,0,0,0,1.64-.47,3.17,3.17,0,0,0,1-1.22,5.58,5.58,0,0,0,.47-1.71A15.19,15.19,0,0,0,76.17,11.49Z"/><path d="M84.83,14.35c0,.44,0,.8,0,1.09a2.28,2.28,0,0,0,.15.73.8.8,0,0,0,.39.44,2.06,2.06,0,0,0,.76.24.35.35,0,0,1,.24.14.5.5,0,0,1,.07.27.45.45,0,0,1-.07.25.27.27,0,0,1-.24.12,9.34,9.34,0,0,1-1-.09,12.09,12.09,0,0,0-1.5-.09,14.08,14.08,0,0,0-1.61.09,12.82,12.82,0,0,1-1.46.09.23.23,0,0,1-.2-.12.39.39,0,0,1-.08-.25.43.43,0,0,1,.08-.27.33.33,0,0,1,.23-.14,4.27,4.27,0,0,0,1-.21,1,1,0,0,0,.52-.39,1.44,1.44,0,0,0,.2-.68c0-.27,0-.63,0-1.06V11.23c0-.85,0-1.55,0-2.12a5,5,0,0,0-.19-1.34,1.14,1.14,0,0,0-.49-.69,2.09,2.09,0,0,0-1-.19.3.3,0,0,1-.25-.1.36.36,0,0,1-.09-.24.39.39,0,0,1,.09-.26.3.3,0,0,1,.25-.1A9,9,0,0,0,82.16,6a16.27,16.27,0,0,0,1.94-.44.46.46,0,0,1,.54.14.88.88,0,0,1,.19.56v1s0,.06,0,.07,0,0,.07,0a4.71,4.71,0,0,1,.51-.64,4.36,4.36,0,0,1,.78-.66,4.44,4.44,0,0,1,1-.52,3.74,3.74,0,0,1,1.28-.21,4.16,4.16,0,0,1,3,1.08,4.71,4.71,0,0,1,1.11,3.5v4.44c0,.47,0,.85,0,1.15a1.72,1.72,0,0,0,.18.71,1,1,0,0,0,.44.42,3.12,3.12,0,0,0,.85.22.33.33,0,0,1,.23.14.5.5,0,0,1,.08.27.46.46,0,0,1-.08.25.26.26,0,0,1-.23.12,10.72,10.72,0,0,1-1.11-.09,13.65,13.65,0,0,0-3.13,0,11,11,0,0,1-1.25.09.24.24,0,0,1-.21-.12.46.46,0,0,1-.08-.25.5.5,0,0,1,.08-.27.33.33,0,0,1,.24-.14,2.54,2.54,0,0,0,.87-.24,1,1,0,0,0,.44-.43,1.78,1.78,0,0,0,.17-.67c0-.27,0-.6,0-1V10.56c0-.44,0-.87,0-1.3a3.47,3.47,0,0,0-.28-1.17,2.14,2.14,0,0,0-.68-.86A1.92,1.92,0,0,0,88,6.89a3.42,3.42,0,0,0-1.37.25,2.73,2.73,0,0,0-1,.66,2.78,2.78,0,0,0-.62,1,3.52,3.52,0,0,0-.2,1.18Z"/><path d="M104.17,5.72a6.14,6.14,0,0,0-.14.7,5,5,0,0,0-.07.89q0,.5,0,1c0,.36,0,.63,0,.82a.14.14,0,0,1-.1.13.62.62,0,0,1-.23.07.47.47,0,0,1-.24,0,.2.2,0,0,1-.13-.12,4.68,4.68,0,0,0-.93-2.12,2.66,2.66,0,0,0-2.08-.74,2.47,2.47,0,0,0-1.59.49,1.52,1.52,0,0,0-.62,1.28,1.18,1.18,0,0,0,.52,1,6,6,0,0,0,1.37.68l.87.32.82.33c.45.21.88.42,1.27.65a4.42,4.42,0,0,1,1,.79,3.76,3.76,0,0,1,.68,1,3.38,3.38,0,0,1,.24,1.32,3.1,3.1,0,0,1-.41,1.65A3.31,3.31,0,0,1,103.39,17a4.64,4.64,0,0,1-1.48.59,7.77,7.77,0,0,1-1.64.18,7.85,7.85,0,0,1-1.51-.16,6,6,0,0,1-1.45-.44.39.39,0,0,0-.33.05.54.54,0,0,0-.22.39s0,.09-.12.11l-.24,0a.52.52,0,0,1-.21,0c-.07,0-.11-.06-.11-.11a3.9,3.9,0,0,1,.06-.58,5.43,5.43,0,0,0,0-.67,5.76,5.76,0,0,0,0-.69c0-.25-.05-.5-.08-.74s0-.46-.06-.65,0-.33,0-.42a.16.16,0,0,1,.1-.15.61.61,0,0,1,.24-.07.48.48,0,0,1,.24,0,.2.2,0,0,1,.15.14,6.47,6.47,0,0,0,.47,1.33,3.16,3.16,0,0,0,.71,1,2.78,2.78,0,0,0,1,.58,4.88,4.88,0,0,0,1.47.2,2.24,2.24,0,0,0,1.52-.52,1.85,1.85,0,0,0,.59-1.46,1.61,1.61,0,0,0-.59-1.31,6.7,6.7,0,0,0-1.36-.85l-.75-.31-.76-.31-1.13-.48a4.24,4.24,0,0,1-1-.61,2.62,2.62,0,0,1-.69-.91A3.22,3.22,0,0,1,96,8.74a2.93,2.93,0,0,1,.4-1.59,3.36,3.36,0,0,1,1-1.05,4.59,4.59,0,0,1,1.42-.59,6.79,6.79,0,0,1,1.53-.18,4.53,4.53,0,0,1,1.29.17,5,5,0,0,1,1.24.61.36.36,0,0,0,.27,0c.11,0,.2-.19.27-.43a.19.19,0,0,1,.16-.13.76.76,0,0,1,.26,0,.6.6,0,0,1,.23.06C104.16,5.62,104.19,5.67,104.17,5.72Z"/><path d="M110.41,14.35c0,.44,0,.8,0,1.09a1.54,1.54,0,0,0,.18.73,1,1,0,0,0,.48.44,2.89,2.89,0,0,0,.92.24.35.35,0,0,1,.24.14.5.5,0,0,1,.07.27.45.45,0,0,1-.07.25.27.27,0,0,1-.24.12,10.73,10.73,0,0,1-1.22-.09,12.83,12.83,0,0,0-1.53-.09,14.44,14.44,0,0,0-1.63.09,13.57,13.57,0,0,1-1.52.09.24.24,0,0,1-.21-.12.46.46,0,0,1-.08-.25.5.5,0,0,1,.08-.27.33.33,0,0,1,.24-.14,3.71,3.71,0,0,0,1-.24,1.1,1.1,0,0,0,.55-.43,1.47,1.47,0,0,0,.19-.67c0-.27,0-.6,0-1V10.32c0-.74,0-1.34-.06-1.79a2.76,2.76,0,0,0-.23-1,1,1,0,0,0-.55-.48,4.43,4.43,0,0,0-1-.21.25.25,0,0,1-.24-.13.5.5,0,0,1-.08-.26.56.56,0,0,1,.08-.26.27.27,0,0,1,.24-.13l.63,0,.8-.06.84-.11c.29,0,.54-.09.77-.14a3.46,3.46,0,0,0,.45-.12.94.94,0,0,1,.28-.06.41.41,0,0,1,.4.18.75.75,0,0,1,.09.34ZM109,2.83a1.67,1.67,0,0,1-1.12-.4,1.27,1.27,0,0,1-.46-1,1.3,1.3,0,0,1,.44-1A1.52,1.52,0,0,1,109,0a1.34,1.34,0,0,1,1,.43,1.43,1.43,0,0,1,.4,1,1.34,1.34,0,0,1-.39,1A1.31,1.31,0,0,1,109,2.83Z"/><path d="M123.85,9.07q-1.74,4.29-3.72,8.77s-.06.06-.14.09a.77.77,0,0,1-.49,0,.32.32,0,0,1-.15-.09q-1.11-2.27-2.09-4.38t-2-4.57c-.17-.41-.33-.76-.46-1a3.38,3.38,0,0,0-.41-.67,1.58,1.58,0,0,0-.52-.41,3.1,3.1,0,0,0-.77-.22.28.28,0,0,1-.21-.14.46.46,0,0,1-.08-.25.6.6,0,0,1,.06-.27.17.17,0,0,1,.18-.12,11.84,11.84,0,0,1,1.47.09,11.81,11.81,0,0,0,1.49.09,12.45,12.45,0,0,0,1.5-.09A12.29,12.29,0,0,1,119,5.77a.22.22,0,0,1,.2.12.6.6,0,0,1,.06.27.58.58,0,0,1-.06.26.21.21,0,0,1-.2.13,2.43,2.43,0,0,0-1.15.3.82.82,0,0,0-.36.72,2.88,2.88,0,0,0,.21,1c.4,1.07.82,2.12,1.25,3.13s.88,2,1.33,2.87q0,.13.15.12a.21.21,0,0,0,.16-.12c.17-.38.37-.85.6-1.4s.44-1.12.66-1.7.42-1.16.61-1.73.35-1.07.47-1.48a2.24,2.24,0,0,0,.1-.65q0-.66-.39-.81a3.78,3.78,0,0,0-.8-.21.31.31,0,0,1-.24-.15.43.43,0,0,1-.06-.26.58.58,0,0,1,.09-.25.24.24,0,0,1,.21-.12,5.9,5.9,0,0,1,1.06.09A5.83,5.83,0,0,0,124,6a8.63,8.63,0,0,0,1.21-.09,7.71,7.71,0,0,1,1-.09.22.22,0,0,1,.22.12.5.5,0,0,1,.07.27.48.48,0,0,1-.07.26.19.19,0,0,1-.19.13,1.86,1.86,0,0,0-.87.24,1.93,1.93,0,0,0-.61.53,3.67,3.67,0,0,0-.47.78C124.13,8.4,124,8.73,123.85,9.07Z"/><path d="M130.09,10.87c-.08,0-.13,0-.14.09a1.41,1.41,0,0,0,0,.22,8,8,0,0,0,.29,2.29,4,4,0,0,0,.84,1.52,3,3,0,0,0,1.27.84,4.67,4.67,0,0,0,1.6.26,9.74,9.74,0,0,0,1.72-.14,3,3,0,0,0,1.43-.64.33.33,0,0,1,.27-.07.36.36,0,0,1,.23.13.51.51,0,0,1,.12.23.27.27,0,0,1-.05.23,4.45,4.45,0,0,1-1.87,1.51,8,8,0,0,1-5.27-.05A5,5,0,0,1,128.65,16a5.33,5.33,0,0,1-1.09-2,8,8,0,0,1-.35-2.46,6.72,6.72,0,0,1,.43-2.41,5.75,5.75,0,0,1,1.2-2,6,6,0,0,1,1.85-1.33,5.71,5.71,0,0,1,2.37-.49,5.15,5.15,0,0,1,2,.38,4.38,4.38,0,0,1,1.52,1,4.77,4.77,0,0,1,1,1.58,5.66,5.66,0,0,1,.35,2c0,.37-.13.55-.39.55Zm4.76-.91c.24,0,.38-.09.42-.26a3.65,3.65,0,0,0,0-.63A3.39,3.39,0,0,0,135.15,8a2.78,2.78,0,0,0-.48-.9,2.41,2.41,0,0,0-.76-.62,2.06,2.06,0,0,0-1-.23,2.58,2.58,0,0,0-2.07.89,2.84,2.84,0,0,0-.53.95A6.2,6.2,0,0,0,130,9.26a2.42,2.42,0,0,0,0,.5c0,.13.05.2.12.2Z"/><path d="M104.71,27c0,.36,0,.65,0,.87a1.21,1.21,0,0,0,.12.52.53.53,0,0,0,.29.26,1.86,1.86,0,0,0,.54.07.1.1,0,0,1,.09.06.3.3,0,0,1,0,.26.08.08,0,0,1-.09.07h-.17l-.14,0-.16,0-.21,0-.29.05-.38.08-.36.07-.22,0c-.07,0-.13-.06-.17-.18a1.36,1.36,0,0,1-.07-.5q0-.07,0-.06l-.06,0a3.08,3.08,0,0,1-.78.53,2.13,2.13,0,0,1-.92.17,2.43,2.43,0,0,1-1-.2,2,2,0,0,1-.78-.57,2.62,2.62,0,0,1-.5-.9,4.31,4.31,0,0,1,.1-2.7,3,3,0,0,1,.71-1,2.93,2.93,0,0,1,1-.6,3.28,3.28,0,0,1,1.1-.2,3.07,3.07,0,0,1,.57.06,2.12,2.12,0,0,1,.6.2V22.6c0-.38,0-.67,0-.89a1.15,1.15,0,0,0-.14-.52A.52.52,0,0,0,103,21a3.35,3.35,0,0,0-.62-.11s-.06,0-.09-.06a.35.35,0,0,1,0-.13.28.28,0,0,1,0-.13.09.09,0,0,1,.09-.07l.48,0,.53-.05a5,5,0,0,0,.54-.07l.49-.12c.11,0,.19,0,.23,0a.34.34,0,0,1,.07.15Zm-1.22-2.64a1.64,1.64,0,0,0-.54-.46,1.45,1.45,0,0,0-.68-.15,2,2,0,0,0-.71.12,1.13,1.13,0,0,0-.52.4,2,2,0,0,0-.33.78,6.16,6.16,0,0,0-.11,1.25,4.12,4.12,0,0,0,.09.86,2.72,2.72,0,0,0,.27.76,1.64,1.64,0,0,0,.43.53.88.88,0,0,0,.59.2,1.87,1.87,0,0,0,.9-.19,1.91,1.91,0,0,0,.61-.48Z"/><path d="M107.89,25.9s-.06,0-.07,0v.11A3.77,3.77,0,0,0,108,27.2a1.91,1.91,0,0,0,.41.76,1.62,1.62,0,0,0,.64.42,2.32,2.32,0,0,0,.8.13,4.91,4.91,0,0,0,.86-.07,1.49,1.49,0,0,0,.71-.32.18.18,0,0,1,.14,0,.21.21,0,0,1,.12.07.22.22,0,0,1,0,.11.16.16,0,0,1,0,.12,2.22,2.22,0,0,1-.94.76,3.64,3.64,0,0,1-1.29.2,3.42,3.42,0,0,1-1.34-.23,2.46,2.46,0,0,1-.94-.66,2.68,2.68,0,0,1-.54-1,4.06,4.06,0,0,1-.18-1.23,3.25,3.25,0,0,1,.22-1.21,2.92,2.92,0,0,1,.6-1,2.88,2.88,0,0,1,.92-.66,2.73,2.73,0,0,1,1.19-.25,2.46,2.46,0,0,1,1,.19,2.14,2.14,0,0,1,.76.52,2.35,2.35,0,0,1,.49.79,2.73,2.73,0,0,1,.17,1c0,.18-.06.27-.19.27Zm2.38-.46c.13,0,.19,0,.21-.13a1.35,1.35,0,0,0,0-.31,1.5,1.5,0,0,0-.09-.52,1.22,1.22,0,0,0-.24-.45,1.26,1.26,0,0,0-.37-.32,1.19,1.19,0,0,0-.51-.11,1.41,1.41,0,0,0-.61.12,1.14,1.14,0,0,0-.42.33,1.29,1.29,0,0,0-.27.47,2.63,2.63,0,0,0-.13.57.84.84,0,0,0,0,.26q0,.09.06.09Z"/><path d="M116.79,23.33a2.15,2.15,0,0,0-.07.35,2,2,0,0,0,0,.44c0,.16,0,.33,0,.51s0,.32,0,.41,0,.05,0,.07l-.12,0a.25.25,0,0,1-.12,0,.1.1,0,0,1-.06-.05,2.27,2.27,0,0,0-.47-1.06,1.31,1.31,0,0,0-1-.37,1.24,1.24,0,0,0-.79.24.76.76,0,0,0-.32.64A.6.6,0,0,0,114,25a3.69,3.69,0,0,0,.69.34l.44.16.41.16.63.33a2.2,2.2,0,0,1,.51.4,1.72,1.72,0,0,1,.33.51,1.74,1.74,0,0,1-.08,1.49,1.68,1.68,0,0,1-.53.53,2.54,2.54,0,0,1-.74.29,4,4,0,0,1-.82.09,4.29,4.29,0,0,1-.76-.07,3.48,3.48,0,0,1-.73-.23.24.24,0,0,0-.16,0,.32.32,0,0,0-.11.2s0,0-.06.05h-.12l-.1,0s-.06,0-.06-.06a1.78,1.78,0,0,1,0-.28,2.14,2.14,0,0,0,0-.34c0-.11,0-.22,0-.35s0-.24,0-.37,0-.23,0-.32,0-.17,0-.21a.1.1,0,0,1,0-.08.53.53,0,0,1,.12,0H113s.07,0,.08.07a2.76,2.76,0,0,0,.23.67,1.44,1.44,0,0,0,.36.48,1.26,1.26,0,0,0,.52.29,2.26,2.26,0,0,0,.73.1,1.11,1.11,0,0,0,.76-.26.91.91,0,0,0,.29-.73.8.8,0,0,0-.29-.66,3,3,0,0,0-.68-.42l-.37-.15-.38-.16-.57-.24a1.86,1.86,0,0,1-.49-.31,1.3,1.3,0,0,1-.35-.45,1.74,1.74,0,0,1,.07-1.47,1.75,1.75,0,0,1,.52-.53,2.47,2.47,0,0,1,.71-.29,3.44,3.44,0,0,1,.77-.09,2.43,2.43,0,0,1,.64.08,2.55,2.55,0,0,1,.62.31.14.14,0,0,0,.14,0s.1-.09.13-.21a.1.1,0,0,1,.08-.07.57.57,0,0,1,.13,0,.27.27,0,0,1,.12,0S116.8,23.3,116.79,23.33Z"/><path d="M119.91,27.64c0,.22,0,.4,0,.55a.91.91,0,0,0,.09.36.47.47,0,0,0,.24.22,1.77,1.77,0,0,0,.46.12.19.19,0,0,1,.12.07.29.29,0,0,1,0,.14.28.28,0,0,1,0,.12.14.14,0,0,1-.12.06,5.66,5.66,0,0,1-.61-.05,6.51,6.51,0,0,0-.77,0,7.32,7.32,0,0,0-.81,0,6.76,6.76,0,0,1-.76.05.11.11,0,0,1-.1-.06.19.19,0,0,1,0-.12.21.21,0,0,1,0-.14.14.14,0,0,1,.11-.07,2.34,2.34,0,0,0,.53-.12.5.5,0,0,0,.27-.21.72.72,0,0,0,.1-.34c0-.14,0-.3,0-.5V25.63c0-.38,0-.68,0-.9a1.36,1.36,0,0,0-.12-.51.51.51,0,0,0-.27-.25,3.11,3.11,0,0,0-.5-.1.11.11,0,0,1-.11-.06.24.24,0,0,1,0-.13.2.2,0,0,1,0-.13.11.11,0,0,1,.11-.07l.32,0,.4,0,.42-.05.39-.07.22-.06.14,0a.2.2,0,0,1,.2.09.41.41,0,0,1,0,.17Zm-.69-5.76a.83.83,0,0,1-.56-.2.62.62,0,0,1-.24-.5.68.68,0,0,1,.23-.51.73.73,0,0,1,.54-.21.67.67,0,0,1,.51.22.69.69,0,0,1,.21.51.68.68,0,0,1-.2.49A.66.66,0,0,1,119.22,21.88Z"/><path d="M126.6,24.17a2,2,0,0,1,.27.58,3.21,3.21,0,0,1,.1.62,2.26,2.26,0,0,1-.22,1,2.22,2.22,0,0,1-.58.74,2.52,2.52,0,0,1-.86.45,3.11,3.11,0,0,1-1,.16h-.4l-.49.05a1.37,1.37,0,0,0-.39.13.25.25,0,0,0-.16.24.21.21,0,0,0,.13.19,1.11,1.11,0,0,0,.31.13,2.5,2.5,0,0,0,.38.06l.31,0c.62,0,1.18.1,1.67.16a4.92,4.92,0,0,1,1.26.32,1.74,1.74,0,0,1,.78.62,1.72,1.72,0,0,1,.28,1,2.55,2.55,0,0,1-.22,1,2.22,2.22,0,0,1-.67.83,3.24,3.24,0,0,1-1.08.56,5.17,5.17,0,0,1-1.49.2,6.43,6.43,0,0,1-1.29-.12,3.27,3.27,0,0,1-1-.39,1.87,1.87,0,0,1-.65-.66,2,2,0,0,1-.22-1,1.76,1.76,0,0,1,.33-1.07,2.53,2.53,0,0,1,.36-.37,2,2,0,0,1,.4-.27,1.93,1.93,0,0,1-.55-.29.71.71,0,0,1-.24-.6.92.92,0,0,1,.13-.51,1,1,0,0,1,.37-.34,2,2,0,0,1,.5-.19,3.57,3.57,0,0,1,.56-.07h0a0,0,0,0,0,0,0,2.47,2.47,0,0,1-1-.73,1.84,1.84,0,0,1-.38-1.24,2.37,2.37,0,0,1,.19-1,2.14,2.14,0,0,1,.56-.74,2.45,2.45,0,0,1,.86-.47,3.6,3.6,0,0,1,1.12-.17,2.61,2.61,0,0,1,1.1.2,2.84,2.84,0,0,1,.74.5,2.3,2.3,0,0,1,.59-.41,1.59,1.59,0,0,1,.75-.17l.32,0a1.15,1.15,0,0,1,.33.1.65.65,0,0,1,.24.19.45.45,0,0,1,.1.31.7.7,0,0,1-.12.4.5.5,0,0,1-.45.17.41.41,0,0,1-.33-.1.65.65,0,0,1-.11-.22l-.09-.22a.26.26,0,0,0-.25-.11.94.94,0,0,0-.42.11A.75.75,0,0,0,126.6,24.17Zm-3.52,5.45a1.11,1.11,0,0,0-.35.52,1.77,1.77,0,0,0-.13.67,1.63,1.63,0,0,0,.2.84,1.8,1.8,0,0,0,.53.6,2.22,2.22,0,0,0,.74.36,3.58,3.58,0,0,0,.87.11,2,2,0,0,0,.73-.13,1.94,1.94,0,0,0,.61-.35,1.6,1.6,0,0,0,.41-.52,1.31,1.31,0,0,0,.16-.65.94.94,0,0,0-.29-.71,2,2,0,0,0-.8-.43,6.14,6.14,0,0,0-1.2-.22C124.1,29.66,123.61,29.63,123.08,29.62Zm1.25-2.38a1.09,1.09,0,0,0,1-.44,2.42,2.42,0,0,0,.29-1.29,6,6,0,0,0,0-.78,2.09,2.09,0,0,0-.17-.61,1.1,1.1,0,0,0-.35-.39,1,1,0,0,0-.55-.13,1.21,1.21,0,0,0-.67.17,1.33,1.33,0,0,0-.4.45,2,2,0,0,0-.19.61,3.85,3.85,0,0,0,0,.67,2.34,2.34,0,0,0,.3,1.3A1,1,0,0,0,124.33,27.24Z"/><path d="M131.13,27.64c0,.22,0,.4,0,.55a1.15,1.15,0,0,0,.07.36.41.41,0,0,0,.19.22,1.39,1.39,0,0,0,.39.12.19.19,0,0,1,.12.07.29.29,0,0,1,0,.14.27.27,0,0,1,0,.12.14.14,0,0,1-.12.06l-.49-.05a6.06,6.06,0,0,0-.75,0,7,7,0,0,0-.8,0,6.56,6.56,0,0,1-.73.05.11.11,0,0,1-.1-.06.19.19,0,0,1,0-.12.21.21,0,0,1,0-.14.14.14,0,0,1,.11-.07,2.7,2.7,0,0,0,.5-.1.49.49,0,0,0,.26-.2.68.68,0,0,0,.1-.34c0-.14,0-.31,0-.53V26.08c0-.42,0-.78,0-1.06a2.78,2.78,0,0,0-.09-.67.53.53,0,0,0-.25-.34.9.9,0,0,0-.48-.1.17.17,0,0,1-.12-.05.21.21,0,0,1,0-.12.21.21,0,0,1,0-.13.17.17,0,0,1,.12-.05,5,5,0,0,0,.72-.08,7.09,7.09,0,0,0,1-.22.24.24,0,0,1,.27.07.42.42,0,0,1,.1.28v.52s0,0,0,0,0,0,0,0a2,2,0,0,1,.25-.31,2.64,2.64,0,0,1,.39-.34,2.44,2.44,0,0,1,.51-.26,2.15,2.15,0,0,1,.64-.1,2.1,2.1,0,0,1,1.53.54,2.35,2.35,0,0,1,.55,1.75v2.22c0,.24,0,.43,0,.57a.86.86,0,0,0,.09.36.5.5,0,0,0,.22.21,1.55,1.55,0,0,0,.43.11.14.14,0,0,1,.11.07.21.21,0,0,1,0,.14.19.19,0,0,1,0,.12.11.11,0,0,1-.11.06c-.12,0-.3,0-.56-.05a6.51,6.51,0,0,0-.77,0,6.63,6.63,0,0,0-.79,0,5.6,5.6,0,0,1-.63.05.11.11,0,0,1-.1-.06.19.19,0,0,1,0-.12.21.21,0,0,1,0-.14.15.15,0,0,1,.12-.07,1.51,1.51,0,0,0,.43-.12.5.5,0,0,0,.22-.21.85.85,0,0,0,.09-.34c0-.14,0-.3,0-.5v-2c0-.21,0-.43,0-.65a1.55,1.55,0,0,0-.14-.58,1,1,0,0,0-.34-.43,1,1,0,0,0-.61-.17A1.76,1.76,0,0,0,132,24a1.48,1.48,0,0,0-.49.34,1.28,1.28,0,0,0-.31.48,1.7,1.7,0,0,0-.1.59Z"/></g></g></svg>