<svg xmlns="http://www.w3.org/2000/svg" viewBox="0 0 36 36"><title>xd</title><g id="Layer_2" data-name="Layer 2"><g id="Layer_1-2" data-name="Layer 1"><path d="M0,4A4,4,0,0,1,4,0H32a4,4,0,0,1,4,4V32a4,4,0,0,1-4,4H4a4,4,0,0,1-4-4Z" style="fill:#ff41c8"/><path d="M3,3V33H33V3ZM13.09,15.69,15,10.81H18.3l-3.34,7L18.38,25H15.05l-2-5-1.94,5H7.82l3.42-7.17-3.35-7h3.29Zm6,3.74A6.85,6.85,0,0,1,20,15.55a2.91,2.91,0,0,1,2.56-1.28,2.46,2.46,0,0,1,2,1.06V10h2.78V25H24.81L24.68,24a2.52,2.52,0,0,1-2.18,1.27A2.88,2.88,0,0,1,20,24a6.68,6.68,0,0,1-.89-3.73v-.8Zm2.77.69a4.87,4.87,0,0,0,.34,2.18,1.15,1.15,0,0,0,1.12.62,1.34,1.34,0,0,0,1.24-.73V17.37a1.33,1.33,0,0,0-1.23-.78,1.2,1.2,0,0,0-1.12.61,4.86,4.86,0,0,0-.35,2.19Z" style="fill:#16020b"/></g></g></svg>