<svg xmlns="http://www.w3.org/2000/svg" xmlns:xlink="http://www.w3.org/1999/xlink" viewBox="0 0 25.81 58.69"><defs><symbol id="golden_stone" data-name="golden stone" viewBox="0 0 217.85 495.37"><path d="M134.45,198q-1.74-1.84-3.46-3.7c-.31.79-.27.77.45,2,.35.59,1,1.05,1,2a2.74,2.74,0,0,1-1.89-1.89,6.32,6.32,0,0,0-2.09-2.82c-.09,1.08-.12,1.82-.21,2.56s-.31,1.53-.4,2.3a1.35,1.35,0,0,0,.21.82c1.4,2.33,2.82,4.64,4.27,7,.75-.13,1.5-.29,2.25-.39,1-.13,1.15.93,1.78,1.29a29.86,29.86,0,0,1,3.13-.7,21.82,21.82,0,0,1,9.87,1.27c3.73,1.26,7.42,2.63,11.12,4,3.46,1.26,6.93,2.51,10.38,3.84,1.21.47,2.33,1.16,3.5,1.74.37.18.76.33,1.4.61-.06-.69-.07-1.1-.13-1.51-.77-4.74-1.58-9.48-2.28-14.23a48.42,48.42,0,0,1-.37-5.52c-.1-3.26,2.31-4.84,4.64-5.57a3.06,3.06,0,0,0,1.72-1.18,23.8,23.8,0,0,0,3.22-5.45L179.76,183a2.63,2.63,0,0,1,2.73-1.24,5.54,5.54,0,0,1,2.36,1A14.1,14.1,0,0,1,187,184.9a1.9,1.9,0,0,1,.28,2.19,13.67,13.67,0,0,1-5.54,6.38,2,2,0,0,0-1.26,2c0,2.13,0,4.26,0,6.39s.07,4.56.32,6.81c.32,3,.88,5.86,1.29,8.79.27,2,.53,3.95.65,5.93a7.56,7.56,0,0,1-.42,2.42,16.16,16.16,0,0,1-1,2.71,1.85,1.85,0,0,1-1.09,1,8.57,8.57,0,0,1-3.15.07c-5-1.18-10.08-2.49-15.12-3.74-2.27-.56-4.54-1.06-6.8-1.63s-4.32-1.13-6.47-1.73a19.17,19.17,0,0,1-7-4.09,8,8,0,0,0-1.48-1.26,5.9,5.9,0,0,0,0,1c.28,1.48.58,2.95.87,4.43a2.41,2.41,0,0,1-1.48,3.07c-.8.34-1.52.85-2.3,1.24-.6.29-.79.69-.46,1.28.47.84,1,1.68,1.53,2.7-1-.31-1.09-1.23-1.93-1.77.67,1.64,1,3.2,2.4,3.6l1,2-1.09,0-1.11-1.47c-1.18,2.54.2,4.74.29,7.1-.43-1-.83-2-1.31-3a6.08,6.08,0,0,0-1.3-1.68c.82,1.25,0,2.73.68,4,.42.85.76,1.74,1.18,2.72-.93-.37-1.3-1.3-1.91-2s-1.19-1.36-1.92-2.19c-.4,1.19.52,1.88.35,2.84l-1-1.31-.29.08c.06.84.13,1.67.2,2.6-.82-.23-1-.91-1.33-1.53l-2.18-4.7a1.12,1.12,0,0,0-.27,1.4,7.79,7.79,0,0,1,.67,3.54.71.71,0,0,0,.14.55c.91.91.68,2.07.73,3.17.06,1.32.34,1.68,1.61,2l5.3,1.55a2.65,2.65,0,0,1,2,2.61c0,1.64.87,2.16,2.25,2.67a15.64,15.64,0,0,1,6.41,4.43c4.06,4.65,8.14,9.27,12.09,14a54.86,54.86,0,0,1,6.57,10.3c1.77,3.46,3.44,7,5.11,10.47.52,1.09.88,2.25,1.36,3.5a4.69,4.69,0,0,0,.5-.48,66.84,66.84,0,0,1,14.1-14.83c1.63-1.31,3.24-2.64,5-3.83a8.31,8.31,0,0,1,2.76-1.2,2.52,2.52,0,0,1,2.75,1.21,5.36,5.36,0,0,0,1.41,1.4c3.56,2.17,7.16,4.3,10.75,6.43.87.52,1.76,1,2.66,1.51,1.68.93,2.38.7,3.18-1a1,1,0,0,1,.18-.22c1.45.08,1.81.52,1.33,1.75a3.67,3.67,0,0,1-1,1.43,3.24,3.24,0,0,0-1.26,1.86c-.15.82-.86,1-1.57.57a.38.38,0,0,1-.12-.09c-1.84-2.19-4.47-3.21-6.86-4.58s-5-2.75-7.52-4.16a1.75,1.75,0,0,0-2.34.21,30.53,30.53,0,0,1-6.31,4.41,12,12,0,0,0-2.85,2.25,151.09,151.09,0,0,0-11.23,11.82,19.93,19.93,0,0,1-3.52,3c-1.17.86-2.46,1.55-3.69,2.32a3.59,3.59,0,0,1-5.12-1.4,20.19,20.19,0,0,0-2.73-4.1,51.46,51.46,0,0,1-3.66-5.26,158.88,158.88,0,0,0-14.74-20.06A47.72,47.72,0,0,1,139.8,271c-.75-1.12-1.17-2.45-1.9-3.59a21,21,0,0,0-2.5-3.15,2.65,2.65,0,0,0-2.41-.43l2.18,3.81a2,2,0,0,1-1.07-1,6,6,0,0,0-.84-1c.54,1.7,1.05,3.42,3.07,4.07l-.75.13.86,1.14-.6.88-1.59-2.22c-.93,2.82.36,5.15.75,7.85-.84-1.76-1.52-3.24-2.24-4.69-.11-.23-.4-.37-.76-.69.36,2,.69,3.82,1,5.62l-.16.13-3-3.38c-.38,1.37,1.06,2.21.69,3.62l-1.2-2.06-.36.12c.14,1,.29,2,.43,3.06a3.32,3.32,0,0,1-1.12-2.06,5.86,5.86,0,0,0-.69-3.6c-.53.19-.63.51-.42,1s.4,1.18.59,1.77l-2-3.45-.29.07c0,2.17,1.45,4.22.63,6.51a10.5,10.5,0,0,0-.14-1.06c-.22-1-.53-1.94-.81-2.89-.56-1.9-1.61-3.77-1.09-5.91.24-1,.12-1-1.08-1.16a2.59,2.59,0,0,0-.1,2.21,8.55,8.55,0,0,1,.2,6.8,2.16,2.16,0,0,0,0,1.13c.22,1.1.55,2.17.74,3.27a5.64,5.64,0,0,1-1.17,5.16,1.52,1.52,0,0,0-.1,1.2c.5,1.78,1,3.57,1.63,5.29a2.3,2.3,0,0,1-.28,2.44,2.56,2.56,0,0,0-.38,2.57c.69,2.23,1.23,4.5,1.88,6.74a2.21,2.21,0,0,1-.39,2.3c-1.36,1.48-1.43,3.09-.8,5,.72,2.15,1.11,4.42,1.7,6.62a1.61,1.61,0,0,1-.6,1.8,1.89,1.89,0,0,0-.54,2.09,18,18,0,0,1,.34,3c.06,1.21,0,2.42,0,3.64a5.27,5.27,0,0,0,1,3.4c-.43.46-.84.92-1.27,1.37a2,2,0,0,0-.53,2.26,11.54,11.54,0,0,1,.38,5,17.07,17.07,0,0,0,.13,3.91,3,3,0,0,1-.46,2.33,3.71,3.71,0,0,0-.72,3.42,12.39,12.39,0,0,1,.09,4.34c-.1,1.3,0,2.62-.08,3.93a3.33,3.33,0,0,0,1,2.79,2.86,2.86,0,0,1,.34.62,7.36,7.36,0,0,1-1.45.37c-.93,0-1.2.54-1.35,1.38-.29,1.72-.72,3.42-1.08,5.13a1.87,1.87,0,0,1-1.41,1.64c-1,.27-1.06.54-.79,1.54.5,1.87,1.06,3.72,1.65,5.57.67,2.14,1.3,4.31,2.14,6.39.74,1.85,1.38,3.73,2,5.63.53,1.64,1.31,3.2,2,4.8a3.28,3.28,0,0,1,.11.84,2.23,2.23,0,0,0,.12.7,8.86,8.86,0,0,1,1.38,3.79c0,.2.26.38.36.59s.28.66.41,1,.29.78.43,1.17a2.71,2.71,0,0,1,.31.92,1.37,1.37,0,0,0,.45,1.15c.2.18.18.6.28.91s.23.7.36,1.05l.39,1c.13.34.26.67.4,1s.22.5.32.76c.16.43.31.87.46,1.3a2.26,2.26,0,0,1,.23.8c0,.47,0,.85.43,1.13a.76.76,0,0,1,.28.48,12.54,12.54,0,0,0,1.22,3.53,13.64,13.64,0,0,1,.69,2.53,13.87,13.87,0,0,0,.7,2,63.06,63.06,0,0,1,2.78,8.47c.87,2.94,1.88,5.83,2.81,8.75.67,2.08,1.25,4.2,2,6.27,1.94,5.62,3.93,11.23,5.91,16.84.84,2.38,1.68,4.76,2.57,7.12,1.17,3.12,2.33,6.25,3.61,9.32a51.76,51.76,0,0,1,2.19,5.35c.94.58.57,1.81,1.35,2.58.58.58.42,1.89,1,2.53.68.79.59,1.88,1.36,2.58.27.24.22.8.41,1.17a6,6,0,0,0,.83,1l-.58,1.08H161c-.22-.54-.39-1.1-.65-1.61-1.1-2.09-2.29-4.12-3.33-6.23-1.26-2.56-2.4-5.18-3.61-7.76-.78-1.66-1.65-3.27-2.3-5s-1.64-3.37-2.27-5.15-1.36-3.21-2.07-4.81c-.86-1.94-1.79-3.86-2.61-5.83-1.2-2.89-2.32-5.83-3.51-8.74-5.48-13.39-11-26.77-16.43-40.19-4.37-10.81-8.6-21.67-12.89-32.51-.23-.56-.48-1.12-.72-1.68-1.16.54-1,1.74-1.56,2.55-.9-.66-.49-2.09-1.72-2.5-.13.29-.3.57-.41.87-2.89,7.32-5.72,14.66-8.67,22Q88.17,423.59,78,448.4c-.93,2.29-1.9,4.55-2.85,6.83-.69,1.64-1.36,3.29-2,4.93-.6,1.44-1.2,2.89-1.81,4.32s-1.14,2.58-1.69,3.89-1.12,2.77-1.7,4.16c-.25.6-.51,1.2-.79,1.79-.42.88-.88,1.75-1.3,2.63s-.69,1.67-1.08,2.48c-.68,1.41-1.42,2.79-2.1,4.2-1,2-1.91,4.08-2.91,6.11s-1.92,3.75-2.88,5.63H55.71l-.49-1A16.55,16.55,0,0,0,57,490.72a17.77,17.77,0,0,1,.95-2c.5-1.15,1-2.34,1.56-3.43.72-1.38,1.26-2.84,1.91-4.23,1.12-2.39,2-4.88,2.93-7.35q2.64-7.08,5.22-14.19c1.42-4,2.79-8,4.17-11.92.81-2.31,1.64-4.62,2.37-6.95.67-2.1,1.18-4.24,1.83-6.35,1.16-3.76,2.36-7.5,3.56-11.25.34-1.07.7-2.13,1.1-3.17.33-.87.78-1.69,1.1-2.56s.55-1.85.84-2.76c.1-.31.29-.58.42-.88s.21-.51.3-.77.24-.78.37-1.17.21-.52.28-.79-.07-.35,0-.43a8.42,8.42,0,0,0,1-2.68c.16-.39.29-.78.44-1.17s.27-.67.41-1a2.69,2.69,0,0,0,.33-.89,1.27,1.27,0,0,1,.44-1.15c.21-.18.25-.57.36-.87s.33-.86.48-1.29a2.07,2.07,0,0,0,.23-.8,1.13,1.13,0,0,1,.49-1.26c.11-.07.25-.23.24-.34a2.54,2.54,0,0,1,.75-2.09c-.32-1.1.61-1.86.79-2.85a16.59,16.59,0,0,1,1.17-3c.24-.62.42-1.27.64-1.9,1.21-3.47,2.44-6.94,3.62-10.42.56-1.65,1.05-3.33,1.54-5,.15-.5.22-1,.32-1.51-.17-.17-.25-.35-.36-.37-1.5-.25-2-1.28-2.24-2.63-.27-1.53-.66-3-.93-4.56-.13-.74-.41-1.13-1.2-1.18a9.5,9.5,0,0,1-1.62-.38,5.67,5.67,0,0,1,.49-.76,2.94,2.94,0,0,0,.84-2.39c-.06-2.08-.13-4.17-.15-6.26a8.1,8.1,0,0,1,.22-2.31,3.53,3.53,0,0,0-.61-3.17,3.53,3.53,0,0,1-.53-2.87,15.76,15.76,0,0,0,0-4.06,8.69,8.69,0,0,1,.29-4,2.6,2.6,0,0,0-.86-3.23,6.24,6.24,0,0,1-.66-.81,12.6,12.6,0,0,0,.88-6.25,17.37,17.37,0,0,1,.39-4.18,1.46,1.46,0,0,0-.45-1.66,2,2,0,0,1-.55-2.58,24,24,0,0,0,.88-3.38c.36-1.46.69-2.93,1.11-4.38a1.62,1.62,0,0,0-.29-1.76c-1.7-1.65-1.68-3.5-.92-5.59.59-1.64.92-3.37,1.46-5a2.19,2.19,0,0,0-.31-2.31,2.54,2.54,0,0,1-.32-2.94c.63-1.58,1-3.24,1.56-4.86a1.22,1.22,0,0,0-.35-1.55,2.08,2.08,0,0,1-.64-1.1,8.19,8.19,0,0,1-.07-4.73,16,16,0,0,0,.39-1.55,4.26,4.26,0,0,0-.12-2.68,7.74,7.74,0,0,1,.26-5.56,3.52,3.52,0,0,0,.29-2.66c-1.24-.12-1.54.08-1.35,1.1a6.08,6.08,0,0,1-.45,3.83,2.29,2.29,0,0,0-.23.84,3.53,3.53,0,0,1-.85,2.55c-.19.2-.17.6-.28,1a3.37,3.37,0,0,1,.14-2.89,3.2,3.2,0,0,0,.15-2.38l-1.87,3.23a10.4,10.4,0,0,1,.32-1.25c.2-.53,0-.81-.61-1-.29,1.27-.58,2.51-.91,3.93l.64-.29-1.19,2.2c-.25-1.12.5-2.14.12-3.39-1.08.73-1,2-1.85,2.68.35-1.15.71-2.3,1.1-3.59-1.28.21-1.51,1.31-2.16,1.93s-1,1.6-2.1,1.88a6.48,6.48,0,0,0,1.51-3c.08-.67.11-1.34.22-2a13.55,13.55,0,0,1,.37-1.46c-.87.37-.92.42-1.27,1.59-.17.58-.25,1.24-1.16,1.25a19.45,19.45,0,0,0,.66-2.85,16.4,16.4,0,0,0-.25-2.73l-2.19,1.61-.23-.23.84-1.17-.75-.2c2.42-1.56,2.42-1.56,3.2-4.3L83,267.67l-.22-.14L85,263.82a3.2,3.2,0,0,0-3.13,1.07,24.38,24.38,0,0,0-2.71,4.21A36.89,36.89,0,0,1,75,275,177,177,0,0,0,59,296.9c-1,1.61-2.26,3-3.36,4.59a13.29,13.29,0,0,0-1.82,2.94A3.77,3.77,0,0,1,48.12,306,14.6,14.6,0,0,0,46,304.7a21.14,21.14,0,0,1-6.43-5.62,102.72,102.72,0,0,0-11.34-11.51,21,21,0,0,0-2.08-1.32c-1.52-1-3.07-2-4.51-3.18-1.95-1.55-1.89-1.58-4-.38-3.26,1.83-6.55,3.62-9.81,5.45a11.59,11.59,0,0,0-3.37,2.51c-.86,1-1.68.76-2.15-.43a6.68,6.68,0,0,0-.93-1.4,9.77,9.77,0,0,1-1.11-1.49c-.58-1.28-.21-1.79,1.24-1.93.08.07.18.13.21.21.71,1.66,1.5,2,3,1.11,4.67-2.7,9.3-5.45,13.94-8.2a3.05,3.05,0,0,0,.89-.9,2.93,2.93,0,0,1,3.87-1.35,5.92,5.92,0,0,1,1.66.89c2.45,1.91,4.89,3.82,7.3,5.79A61.54,61.54,0,0,1,44.1,295.67c.16.23.34.46.59.79A2.42,2.42,0,0,0,45,296a76.83,76.83,0,0,1,5.34-11.8,68,68,0,0,1,7.46-12c2.33-2.86,4.74-5.65,7.15-8.45,1.65-1.91,3.32-3.81,5-5.67a16.53,16.53,0,0,1,7.12-4.64,1.68,1.68,0,0,0,1.33-1.64,6.18,6.18,0,0,1,.89-2.4,2.59,2.59,0,0,1,1.39-1c1.8-.59,3.62-1.07,5.43-1.62a1.59,1.59,0,0,0,1.29-1.57c0-1.3-.1-2.64.82-3.75-.1-1.54.6-2.92.88-4.39A4.67,4.67,0,0,0,89,236l-2.09,3.76c-.11-.85.9-1.62.18-2.7a6.83,6.83,0,0,0-1,4.69l-1.19,2.45c.07-1.46.83-2.83.46-4.54-1,.94-1,2.15-1.68,3.22L83.46,241c.55-.72,1.37-1.36,1.2-2.65a3.2,3.2,0,0,0-.84.52c-.65.77-1.27,1.59-1.9,2.39a2.39,2.39,0,0,1-1.6,1.11,6.3,6.3,0,0,0,1.8-3.67,3,3,0,0,0,.12-.72,6.44,6.44,0,0,1-.11-1.22,3.89,3.89,0,0,1,.62-1.09c-1.11.56-1.3.75-1.57,1.95a2.68,2.68,0,0,1-1.32,1.94l.56-2.2c.18-.72.67-1.46-.17-2.1.29-.64.75-1.28,0-2l-1.12,1.41-1.17.1-.19-.26,1.56-1.28L78.17,233c2.39-.53,2.59-2.38,3.15-4l-1.54,1.94-.22-.13,1.89-3.21c-1.14-.68-2.22-1.3-3.28-1.94-1.61-1-1.71-1.15-1.4-3,.24-1.44.56-2.86.82-4.3a9.94,9.94,0,0,0,0-1.15c-.31.08-.5.07-.56.15a15.41,15.41,0,0,1-7.48,5.07c-2.31.76-4.68,1.31-7,1.92-3,.8-6.11,1.56-9.17,2.34-.7.18-1.4.39-2.11.56-3.45.82-6.89,1.64-10.35,2.44a8.47,8.47,0,0,1-2,.21c-1.73,0-2.16-.43-2.59-2.1a1.87,1.87,0,0,0-.18-.55c-1.43-2.14-1-4.49-.75-6.79.41-3.13,1-6.24,1.43-9.36a85.34,85.34,0,0,0,.69-14.82c0-.43-.13-.86-.16-1.29a1.45,1.45,0,0,0-.85-1.26c-2.54-1.3-4-3.58-5.48-5.9a2.46,2.46,0,0,1,.33-3.19c.38-.44.74-.9,1.13-1.33a3.91,3.91,0,0,1,5-1l.65.37c-.76,1.14-1.93,1.1-2.85,1.81a9.36,9.36,0,0,0,.76,1.76c.93,1.42,1.92,2.8,3,4.16a1.62,1.62,0,0,0,1,.52,7.55,7.55,0,0,1,4,2.52,2.78,2.78,0,0,1,.71,1.54,21.28,21.28,0,0,1,.18,4.06,136.6,136.6,0,0,1-2.62,17.42,8.55,8.55,0,0,0-.13,1c0,.08.08.17.18.37a5.27,5.27,0,0,0,1.13-.51,19.68,19.68,0,0,1,5.13-2.4q5.19-1.95,10.39-3.82c3.71-1.32,7.41-2.66,11.16-3.84a18.6,18.6,0,0,1,8.19-.85c.85.11,1.68.42,2.54.57.33.06.91.06,1-.13.84-1.41,2-1.1,3.19-.68a2.63,2.63,0,0,0,.54.07c.35-.59.72-1.2,1.1-1.81,1-1.62,2-3.22,2.92-4.87a3.25,3.25,0,0,0,.38-1.78c-.11-1.28-.38-2.56-.61-3.93-.93.2-1.33,1.07-1.69,1.75A9.05,9.05,0,0,1,86,198.21c-.43.39-.57,1.09-.91,1.62a6.43,6.43,0,0,1,1.37-3.69,2,2,0,0,0,.59-2l-5,5.24-.22-.15L83,196.59l-.31-.21L81,198c-.27-1.3,1.54-1.51,1.24-2.79-1.85.44-2.87,2.4-4.84,2.56a7.25,7.25,0,0,0,2.45-2.8c.15-.24.38-.52.36-.77a2.57,2.57,0,0,1,.85-2.06,2.52,2.52,0,0,0-1.76,1.31,4.62,4.62,0,0,1-1.48,1.28,11.76,11.76,0,0,0,1.92-5.45c-.65-.33-1.06.88-1.81.14l1-.86-2.43.1A5.65,5.65,0,0,0,81.8,185l-1.63,1.31a3.41,3.41,0,0,1,1.19-1.64c.36-.4.74-.76.63-1.39-.75-4.2.09-8.31.67-12.44a4.37,4.37,0,0,0,0-.55,2.14,2.14,0,0,0-.69.15A31.33,31.33,0,0,1,72.14,174a75.45,75.45,0,0,1-7.61,1.26c-3,.34-6-.43-8.9-1.16-1.87-.47-3.05-1.31-3.49-3.3a11.46,11.46,0,0,1-.4-4.16,54.87,54.87,0,0,1,4-13.52c1.26-3.05,2.77-6,4.16-9a8.75,8.75,0,0,1,.71-1.59c.67-.92.31-1.55-.33-2.29a14.31,14.31,0,0,1-2.69-4.63,10,10,0,0,1-.45-3.88.76.76,0,0,1,0-.15c.27-2.09,3.85-4.21,5.79-3.43a2.4,2.4,0,0,1,1.45,1.71,1.24,1.24,0,0,1-.18.92c-.1.13-.52,0-.79,0-.09,0-.17-.09-.26-.12-1.42-.52-2.19.09-1.9,1.58.33,1.67.76,3.31,1.11,5a6.14,6.14,0,0,0,2.51,3.8,2.63,2.63,0,0,1,1,3.08,7.07,7.07,0,0,1-.36,1.1c-1.67,4.09-3.34,8.19-5,12.27-.7,1.7-1.44,3.39-2.16,5.09-.13.31-.23.63-.4,1.11.56-.08,1-.12,1.38-.21,4.57-.9,9.11-2,13.71-2.66a56.67,56.67,0,0,1,8.14-.05c.1,0,.19.05.29.05,2.9-.11,5.22,1.21,7.38,3,1.16,1,1.2.9,2.52.05L93,162.74c0-.21,0-.35,0-.49a2.55,2.55,0,0,0-2.65-2.73,21,21,0,0,1-2.94-.8,20.82,20.82,0,0,0-2.69-.49A3,3,0,0,1,82,156c-1.2-3.78-1.21-7.44.83-11a4.1,4.1,0,0,0,.33-1.66c.1-1.3.07-2.62.24-3.91a4.89,4.89,0,0,1,.8-2,2,2,0,0,0,.15-2.15c-1.18-2.81-2.37-5.61-3.41-8.48-.87-2.4-1.56-4.86-2.28-7.32-1-3.34-2-6.68-2.87-10.07-2.18-9-4.38-17.93-6.34-26.95C65.33,63.71,62.08,44.76,59,25.78c-1.34-8.15-2.54-16.32-3.79-24.47A9.5,9.5,0,0,1,55.13,0h1.16c.07.48.13,1,.22,1.44C57.72,8.13,59,14.81,60.17,21.5c1.56,8.6,3,17.22,4.67,25.81,1.07,5.53,2.45,11,3.61,16.5.68,3.23,1.09,6.52,1.84,9.74,1.33,5.65,2.81,11.26,4.23,16.89a13.76,13.76,0,0,0,.54,1.93,31.15,31.15,0,0,1,1.35,5c.1.4.65.86.55,1.12-.39,1,.59,1.64.53,2.59A3.16,3.16,0,0,0,78,103c.73.78,0,1.95.92,2.55-.3.63.16,1,.39,1.54s-.09,1.21.46,1.7c.09.08,0,.37,0,.55.15.75.3,1.51.49,2.25.1.36.37.68.48,1.05.59,1.93,1.09,3.9,1.75,5.81.85,2.43,1.83,4.8,2.73,7.21A24,24,0,0,0,89.7,133a7.66,7.66,0,0,0,.85.67,5.15,5.15,0,0,0,.12-1.17,8.92,8.92,0,0,1,2-6.39c1-1.48,1-3.37,2.07-4.83a.59.59,0,0,0,0-.14,6.46,6.46,0,0,1,2-3.79c1-.93,2-1.8,3.07-2.68,1.56-1.31,3.13-2.62,4.71-3.9a6.26,6.26,0,0,1,1-.62l.33.31c-1.85,2.65-3.9,5.17-5.52,8a9.53,9.53,0,0,0,1.56-.46,13,13,0,0,1,5.16-.76c.42,0,1,0,1,.6,0,.27-.41.61-.71.76-.69.35-1.45.56-2.15.89-1.34.64-2.65,1.32-4,2l.12.31c1.2-.15,2.42,0,3.58-.64a8,8,0,0,1,7.94,0,7.52,7.52,0,0,0,3.62.55,5.3,5.3,0,0,0-1.39-1c-1.36-.64-2.75-1.23-4.12-1.84a7.17,7.17,0,0,1-.94-.4.75.75,0,0,1-.32-.57.73.73,0,0,1,.43-.5,3.31,3.31,0,0,1,1-.13,13.55,13.55,0,0,1,5.4,1c.27.11.57.16,1.07.3-1.73-3-4-5.36-5.47-8.26a2.85,2.85,0,0,1,1.26.6c2.41,2,4.86,3.88,7.17,6a10,10,0,0,1,2.09,2.94c.56,1.09.48,2.46,1.4,3.43a.82.82,0,0,1,.14.56,3.46,3.46,0,0,0,.88,2.24c1.33,2,2.39,4,2.06,6.51a4,4,0,0,0,.16,1.13c.26-.12.44-.14.51-.24,1.31-1.86,3-3.58,3.84-5.62,2-4.53,3.54-9.23,5.24-13.87.17-.47-.05-1.22.25-1.51,1.25-1.26.53-3.1,1.43-4.42-.3-.6.3-1,.36-1.39a7.58,7.58,0,0,1,.57-2.06.15.15,0,0,0,0-.14c-.27-.43,0-.71.26-1,.16-.15.34-.46.28-.62-.36-1,.65-1.66.61-2.65a10.2,10.2,0,0,1,.79-2.72c.23-.86.31-1.75.55-2.6.44-1.6,1-3.17,1.43-4.77.59-2.19,1.13-4.39,1.68-6.59.91-3.67,1.9-7.33,2.72-11,1-4.5,1.8-9,2.73-13.56,1.18-5.75,2.52-11.48,3.59-17.26,2.24-12.07,4.35-24.18,6.54-36.27.32-1.76.76-3.5,1.15-5.25h.87c-.19,1.73-.34,3.47-.6,5.2-1,6.47-2,13-3.05,19.42-1.83,10.92-3.66,21.84-5.63,32.73-2.64,14.67-5.59,29.29-9.19,43.76-1.26,5.09-2.63,10.15-4,15.22-.73,2.66-1.46,5.32-2.38,7.92-1.28,3.59-2.71,7.13-4.15,10.67a2.73,2.73,0,0,0,.13,2.82,9,9,0,0,1,.87,3.18,10,10,0,0,1,0,2.19,4.28,4.28,0,0,0,.57,2.36c1.94,3.53,1.76,7.18.5,10.86a2.44,2.44,0,0,1-2.4,1.8,13.51,13.51,0,0,0-3.68.79c-1.12.31-2.23.67-3.37.9a1.32,1.32,0,0,0-1.25,1.34,12,12,0,0,1-.34,1.5l2.56,1.65a1.06,1.06,0,0,0,1.33-.17c.9-.67,1.82-1.31,2.71-2a6.14,6.14,0,0,1,3.09-1.2,41.8,41.8,0,0,1,13.62.29c3.6.78,7.22,1.51,10.83,2.25.28.06.56.1,1,.17a6.92,6.92,0,0,0-.25-1q-3-7.44-6-14.86c-.25-.63-.61-1.22-.88-1.84a13.88,13.88,0,0,1-.75-2,2.48,2.48,0,0,1,1-2.91,6.08,6.08,0,0,0,2.5-3.81c.36-1.75.81-3.49,1.15-5.26.21-1.09-.59-1.73-1.67-1.42l-.14.06c-.42.18-1,.67-1.26.09a1.84,1.84,0,0,1,.22-1.45,2.47,2.47,0,0,1,3.13-1.13,7.06,7.06,0,0,1,3.23,2.17,3.3,3.3,0,0,1,.65,2.61,12.35,12.35,0,0,1-3,7.11,2.25,2.25,0,0,0-.37,2.88c.21.38.32.81.53,1.19a84.09,84.09,0,0,1,7.38,18.49,35.1,35.1,0,0,1,.84,4.44,11.17,11.17,0,0,1-.6,4.27,3.4,3.4,0,0,1-2.8,2.64,25.7,25.7,0,0,1-9.31,1.36,48.8,48.8,0,0,1-11-2.13c-2.16-.7-4.24-1.66-6.35-2.51l-1-.41c.22,1.6.43,3,.61,4.43a25.68,25.68,0,0,1,.22,8,2.42,2.42,0,0,0,.86,2.47c.56.45,1.09.95,1.81,1.59a2.17,2.17,0,0,1-1.37-.62c-.35-.25-.66-.55-1.06-.9.94,2.32,1.87,2.9,5.18,3.44l-1.52.13.08.76c-.72.44-1.1-.45-1.86-.44a13.23,13.23,0,0,0,1.72,5.18c-1.51-.15-1.53-2.22-3.27-2.23,1,.69,1,1.77,1.39,2.63a6.5,6.5,0,0,0,2.69,3.17c-2-.35-3.26-1.9-5.1-2.9a2.24,2.24,0,0,0,1.18,2c.59.42.59.43.43,1.41l-1.87-1.94-.31.17.83,2.26c-.66.28-.93,0-1.06-.56.09-1.6-1-2.57-1.79-3.81-.59.57-.27.9,0,1.26C133.43,196.46,133.93,197.22,134.45,198ZM89.9,238.4A11.66,11.66,0,0,0,92,235.18c-.57-.49-1.06-.49-1.31,0A5.81,5.81,0,0,0,89.9,238.4Zm38.12.45a7.76,7.76,0,0,0-.76-3.52c-.36-.62-.78-.6-1.41-.07Zm2.7-1.62c-.37,1.2.43,2.07.89,3.25A3.86,3.86,0,0,0,130.72,237.23ZM83.48,197.17c1.49-1.14,1.8-1.68,1.52-2.7C84.46,195.33,83.67,195.91,83.48,197.17Z" style="fill:#fff"/></symbol></defs><title>Asset 15</title><g id="Layer_2" data-name="Layer 2"><g id="Layer_1-2" data-name="Layer 1"><use width="217.85" height="495.37" transform="scale(0.12)" xlink:href="#golden_stone"/></g></g></svg>