<svg xmlns="http://www.w3.org/2000/svg" xmlns:xlink="http://www.w3.org/1999/xlink" viewBox="0 0 67.07 66.45"><defs><symbol id="crawler_icon" data-name="crawler icon" viewBox="0 0 43.57 67.32"><g id="Layer_2-2" data-name="Layer 2"><g id="Layer_1-2-2" data-name="Layer 1-2"><g id="Layer_2-2-2" data-name="Layer 2-2"><g id="Layer_1-2-2-2" data-name="Layer 1-2-2"><path d="M31.8,65.34,28,57.41q-2.43-5.11-4.86-10.27c-.12-.26-.18-.61-.7-.43Q22.12,57,21.75,67.32h-.32Q21.07,57.15,20.72,47c-.45-.21-.52.14-.67.4q-2.51,5.46-5,10.92l-3,6.56a1,1,0,0,1-.36.46q4-9.36,8-18.78c-1.41-.17-1.72-.6-1.66-1.87a10.12,10.12,0,0,0-.25-2h-.15a5.9,5.9,0,0,1-.5.73c-.11.12-.32.16-.48.25a1.64,1.64,0,0,1-.18-.48V41.05l-.82.65c.06-1.07.12-2,.17-3-.54.25-.75,0-.9-.44-.43-1.36-1-2.69-1.39-4.06a5.16,5.16,0,0,1,.56-4,1.57,1.57,0,0,0,.17-.92,1.57,1.57,0,0,1,1.19-1.94,5.7,5.7,0,0,0-1-1.09c-.46-.31-1.84.3-2,.85s-.23,1.1-.42,1.63C10.91,32,9.82,35.26,8.74,38.52a1.81,1.81,0,0,1-2.18,1.06,2,2,0,0,1-.66-.3,3.55,3.55,0,0,1-1.34-1.81.87.87,0,0,0-.8-.74c-.63,0-1.28-.06-1.91-.13S.65,36.43,0,36.33c.48-.29.81-.6,1.51-.38A8.87,8.87,0,0,0,4.23,36a1.57,1.57,0,0,1,1.63.82c.23.41.52.79.78,1.21l.21,0c.19-.77.42-1.54.56-2.32a41.4,41.4,0,0,1,2.85-9,7.64,7.64,0,0,1,3-3.58.64.64,0,0,0,.28-.49A15,15,0,0,1,14.1,18l-.25-.34a1.73,1.73,0,0,0-1.83.76l-6,8.2a1.54,1.54,0,0,1-1.92.57,1.44,1.44,0,0,1-.55-.42,3.1,3.1,0,0,0-2.08-1.06,1.84,1.84,0,0,1-.9-.28c.32-.07.63-.14,1-.23a8.11,8.11,0,0,1,1.18-.38,2,2,0,0,1,1,.21,4.38,4.38,0,0,1,.85.54C6,23.37,7.34,21.21,8.85,19.15a21.11,21.11,0,0,1,3-3.18,9.57,9.57,0,0,1,2-1.07,1.08,1.08,0,0,0,.48-.44c.47-1,.88-2.09,1.25-3.14a3.79,3.79,0,0,0,.09-.89c-2.5.8-5,.48-7.51.67A15.35,15.35,0,0,1,6.49,11a1.19,1.19,0,0,1-1.27-.85,1.68,1.68,0,0,1,.26-1.73A23.8,23.8,0,0,0,7.12,5.8a13.21,13.21,0,0,1,.77-1.31c.53,1.61-.82,2.68-1.18,4.1l4.9-1.09a6,6,0,0,1,3.29.29.76.76,0,0,0,.87-.22c.41-.41.87-.78,1.35-1.21a6.29,6.29,0,0,0-.41-.64c-1-1.21-.81-2,.29-3.28a.78.78,0,0,0,.18-.94A8,8,0,0,1,16.67,0l.93,1.6a7.14,7.14,0,0,1,1.46.12,9.59,9.59,0,0,0,5.26,0,7.24,7.24,0,0,1,1.47-.12L26.73,0h.07l-.69,2c1.17,1.51,2,1.93.24,4.35.52.47,1,.95,1.56,1.4a.58.58,0,0,0,.51.06,7.3,7.3,0,0,1,4.86,0,23,23,0,0,0,2.61.46,7.88,7.88,0,0,1,.83.24c-.29-1.37-1.72-2.45-1.25-4l.18-.06c.42.82.79,1.67,1.25,2.47A9.55,9.55,0,0,0,38,8.52a1.5,1.5,0,0,1,.16,1.71A1.05,1.05,0,0,1,37,11c-2,0-4,0-6-.08-1.05,0-2.08-.24-3.21-.38a2.69,2.69,0,0,0,.08.8c.38,1,.8,2.06,1.22,3.08a.8.8,0,0,0,.24.39,5.37,5.37,0,0,0,1.39.71,4.79,4.79,0,0,1,2.09,1.56c2.48,2.46,4.05,5.52,6.07,8.46.27-.15.55-.32.82-.5A1,1,0,0,1,41,25c.29.22.78.18,1.18.27a1.8,1.8,0,0,1,.69.26,4.63,4.63,0,0,1-.9.18,3.15,3.15,0,0,0-2.13,1.1,1.52,1.52,0,0,1-1.93.33,1.41,1.41,0,0,1-.46-.45c-2-2.7-4-5.38-5.94-8.12a2.12,2.12,0,0,0-2.23-.89,8.64,8.64,0,0,0,.16,1.09A8.44,8.44,0,0,1,29.87,22a1.39,1.39,0,0,0,.69,1.44A8.35,8.35,0,0,1,33.34,27a52.54,52.54,0,0,1,3.08,10.23,6.71,6.71,0,0,0,.31,1c.22-.29.42-.59.61-.89A2,2,0,0,1,39.54,36a5.71,5.71,0,0,0,2.4-.08c.69-.25,1.05.09,1.63.43l-3.85.34a.88.88,0,0,0-.8.73,3.59,3.59,0,0,1-1.24,1.76,2,2,0,0,1-2.49,0l-.09-.08a1.59,1.59,0,0,1-.39-.61c-1.09-3.24-2.17-6.5-3.24-9.75-.17-.52-.25-1.06-.39-1.58a1.06,1.06,0,0,0-1-.82c-1.18-.22-1.44-.1-1.95,1,.15.1.3.2.46.29a1,1,0,0,1,.55,1.15,3.48,3.48,0,0,0,.38,1.81,4.87,4.87,0,0,1,.38,3.47c-.44,1.47-1,2.91-1.5,4.35-.08.19-.45.28-.79.48.05.75.1,1.68.16,2.78L27,41v1.73a2.54,2.54,0,0,1-.22.6,3.74,3.74,0,0,1-.55-.41,3,3,0,0,0-.58-.6,11.63,11.63,0,0,0-.26,2c.06,1.21-.29,1.71-1.62,1.81.21.61.37,1.16.61,1.69Q28,56.28,31.69,64.68c.09.18.14.36.22.55Z" style="fill:#f2f2f2"/></g></g></g></g></symbol></defs><title>crawler</title><g id="Layer_2" data-name="Layer 2"><g id="Layer_1-2" data-name="Layer 1"><use width="43.57" height="67.32" transform="translate(15.15 5.71) scale(0.83)" xlink:href="#crawler_icon"/><polygon points="65.61 65.98 65.7 65.26 65.45 65.03 65.61 65.98" style="fill:#f4f4f4"/><path d="M66.53,62.58l-.1-1.23c-.74.7-.53-.25-1.06,1.67.12.68.37,2.16.66,2a8.53,8.53,0,0,1-.22-1.92c.21.31.19,1.08.47,1.45.23-1.17-.18-.73-.08-2Z" style="fill:#f4f4f4"/><path d="M65.8,61.12c.12.11.25.23.36.21C66,61.22,65.87,60.62,65.8,61.12Z" style="fill:#f4f4f4"/><path d="M65.72,60.37c0-.78.27,0,.31-.06l-.47-.89Z" style="fill:#f4f4f4"/><path d="M65.75,57.14l0-.36C65.63,56.91,65.7,57,65.75,57.14Z" style="fill:#f4f4f4"/><path d="M65.7,55.56a2,2,0,0,0,0,1.22l0-.05c.14-.44.48,0,.39.69.07.76-.26.69,0,1.34l.27-.89A6.53,6.53,0,0,0,65.7,55.56Z" style="fill:#f4f4f4"/><path d="M65.75,57.14a3,3,0,0,1,0,.43A.56.56,0,0,0,65.75,57.14Z" style="fill:#f4f4f4"/><polygon points="65.71 58.77 65.78 59.17 65.93 59.07 65.71 58.77" style="fill:#f4f4f4"/><path d="M65.67,52.91c.46.18,0,1.89.31,2.1,0-1,.32-1.88.57-1.65l-.14-1.16C66.24,51.81,65.89,52.3,65.67,52.91Z" style="fill:#f4f4f4"/><path d="M66.84,50.64a.88.88,0,0,1-.08-.26C66.78,50.51,66.8,50.61,66.84,50.64Z" style="fill:#f4f4f4"/><path d="M66,44.8l.47,2.7c-.15-.25-.29-.15-.35-.77-.06,1.2.24,1.35.19,2.34-.43.3,0-1.74-.42-1.17a5.11,5.11,0,0,0,.4,2.29L66,51.3l.47-.38c.14-.45-.37-.9,0-1.18s.24.31.29.63c-.1-.72.37-1.95.31-3.4S66.27,45.8,66,44.8Z" style="fill:#f4f4f4"/><polygon points="66.57 44.7 66.75 44.52 66.5 44.64 66.57 44.7" style="fill:#f4f4f4"/><path d="M66,41.75l.3,1.4a.93.93,0,0,1-.23.34c.11-.05.29.32.38.26.43-.65-.13-1.72-.21-2.47.19-2,.23.09.64-.69,0,.56-.12.58-.15,1.36a6.91,6.91,0,0,0-.08-3.54c0,.23-.17.28-.13.72l-.14-.82A7.55,7.55,0,0,0,66,41.75Z" style="fill:#f4f4f4"/><path d="M66,44.26c0-.52,0-.72.06-.76C65.9,43.63,65.81,43.81,66,44.26Z" style="fill:#f4f4f4"/><path d="M66.59,38a1,1,0,0,0,0,.42A1.21,1.21,0,0,0,66.59,38Z" style="fill:#f4f4f4"/><path d="M66.08,38.78l0-1-.2.39C66,38.32,66,38.81,66.08,38.78Z" style="fill:#f4f4f4"/><path d="M66.68.13s0,0,0,0a5.28,5.28,0,0,0-.19,2c-.18-.09-.19-1-.25-1.59a3.85,3.85,0,0,0-.55.06,1.78,1.78,0,0,1,.4.08C66.05,1,66,1,65.94.92s-.39.15-.36.25h.11c0,1,.28,1.53.22,2.66-.06-.06-.17,0-.25.12a26.93,26.93,0,0,1,.17,5.3A26.76,26.76,0,0,0,66,13.11c-.12,4.91.12,10-.1,15.31l.46.75c-.23.26,0,1.26-.3,1.11a4.55,4.55,0,0,0,0-.91c-.4,1.13,0,3-.11,4.35.08-.15.47-.37.54,0-.5-.1,0,1.61-.57,2-.14,1.36.44,0,.36,1.47.3.14.15-1.36.37-1.61.24.44-.1,1.27.21,1.21.15-2.26-.47-6.47-.64-9.93l.28.37a18.57,18.57,0,0,1,.24-6.06c-.26.33.15-2.61-.45-2.35a4.81,4.81,0,0,0,.16-1.22l-.19-.17c0-.91.3-.76.28-1.81-.26.68-.34-.07-.55-.37.29-1.2.54-2.59.78-3.65a1.14,1.14,0,0,0-.29.55c.09-.72-.16-.6-.25-.79,0-.7.33-.63.49-.59.11-1.28-.53-1.85-.32-2.8l-.26.33c-.07-1.31.23-2.42.14-3.87.36-.7.31,1.19.47,1.79a6.45,6.45,0,0,1,.21-1.11c-.18-.62-.43-1.67-.61-2.44.1.19.18.21.24.14a.52.52,0,0,0,.07-.18,1.46,1.46,0,0,0,0-.35c0-.71,0-1.72.07-2.18Z" style="fill:#f4f4f4"/><path d="M66.92,5.14a4,4,0,0,0,.15.41,1.7,1.7,0,0,1,0-.48C67,5.05,67,5.08,66.92,5.14Z" style="fill:#f4f4f4"/><path d="M66.68.13s0,0,0,0C66.39.11,66.46.12,66.68.13Z" style="fill:#f4f4f4"/><path d="M65.8,9.44l0-.19V9Z" style="fill:#f4f4f4"/><path d="M67,10.52c-.09.29-.18.68-.28,1.11C66.85,11.51,66.94,11.41,67,10.52Z" style="fill:#f4f4f4"/><path d="M66.71,19.38c.05.27.13.12.22.31C66.94,19.13,66.85,18.94,66.71,19.38Z" style="fill:#f4f4f4"/><path d="M67,3.54l-.08-1.15-.07-.73,0,.68a1.26,1.26,0,0,0,0,.26l0,.19Z" style="fill:#f4f4f4"/><path d="M45.79,1.25a16,16,0,0,0,3.6.19c2.2-.16.28-.69,2.37-.73l-.36.65c2.09,0,5.05.1,6.82-.48.15.08.52.18,0,.28,1.39,0,.72-.94,2.58-.72-1.73.41.57.39.09.79l-.27.05c1.18,0,2.74-.26,3.52-.23.06-.17-.71-.43.46-.45-.55,0-.29-.22-.28-.39A21.88,21.88,0,0,0,62,.5c-.6-.22.41-.07-.2-.28l-.86.2c-.64,0,.65-.22-.34-.27a3.62,3.62,0,0,1-1.69.24l.22-.08c-.59.09-1.43,0-1.15.35L57.26.3l.12.24C55.76.45,55.15-.15,53.05.16c.5.08,0,.21-.23.26C53.69.59,53.9.23,54.73.2c.12.25-1.29.54-.28.69C53.34.6,52.36.93,51.89.31c-1.34,0-1.84.26-3.19.12l0-.09c-.26.41-1.11-.19-2.11.23l.72.09c0,.17-.39.18-.87.21.06-.07.06-.07-.1-.15-.15.3-1.67.34-1.86.43A14,14,0,0,0,46.69.88C46.31,1.06,46.43,1.3,45.79,1.25Z" style="fill:#f4f4f4"/><path d="M59.54.17l-.43.14A.81.81,0,0,0,59.54.17Z" style="fill:#f4f4f4"/><path d="M39.75.74C38.9.67,40,.48,39.19.35c-.87.2,1,.42.14.73-.52-.18-1.37.13-1.72.14a.36.36,0,0,0,0-.65A8.24,8.24,0,0,1,36,.47c1.37.25-1.16.15.08.41-.09.24-1.39.41-1.91.23,0-.17.46-.13.81-.14.28-.32-.87-.17-1.07-.46C32.6,1,28.4.92,29.6,1.63a3.26,3.26,0,0,0,1.31-.07c-1.36-.14,0-.37.11-.5.58.12,1.58-.11,1.35.15l-.92.26c3,.14,7,.08,10.4,0H40.38c.17-.2.87-.21,1.41-.3L41.06.67c.43,0,.84,0,.8.13.52-.19.28-.31,0-.48A6.3,6.3,0,0,0,44,.12c-1.83-.39-1.54.32-3.64,0Z" style="fill:#f4f4f4"/><polygon points="43.75 0.48 43.31 0.71 43.98 0.6 43.75 0.48" style="fill:#f4f4f4"/><path d="M43.05,1.51c0-.1.25-.15.23-.25C42.43,1.19,42.53,1.33,43.05,1.51Z" style="fill:#f4f4f4"/><path d="M32.79.49l-1.1.08.71.09C32.38.56,32.65.51,32.79.49Z" style="fill:#f4f4f4"/><path d="M25.07,1.71a17.51,17.51,0,0,1,3.91,0c.84-.3-.4-.57,0-.85-.86-.07-.75.45-1.64.55-.33-.26-1.3.06-2.14,0C25.27,1.49,25.27,1.61,25.07,1.71Z" style="fill:#f4f4f4"/><path d="M19.82.7a11.06,11.06,0,0,1-1.95.07c.08-.16.49-.23.91-.18C18.52.21,18,.65,17.26.4c.06,0,.34.1.13.18C15.51.5,16.33.89,13.9.68c-.36.1-.7.1-.64.35A18.62,18.62,0,0,0,10.91.44c.06.14.61.48.6.79C9.16.79,9.11,1.29,7.61,1a2.93,2.93,0,0,1,.77,0C8.19.47,7.12,1,6.29.9L6.37.53A9.51,9.51,0,0,1,3.3.56L3.52.37c-.43.06-.84.11-1.31.14L.32.56l0,2.31c0,.55,0,1.08.07,1.56l-.23.9c.28,2.31.13-2.3.69-.6C.19,5,1.1,5.92.83,7.23.55,7.85.68,5.91.37,6.59c.35.29.1.7.2,1.4C.24,7.84.53,9.46.15,9l.62,2.46a3.62,3.62,0,0,0-.11,1.63c0-1.33.5.37.65-1.13a69.69,69.69,0,0,1-.09-8.51C1,3.34,1,2.9,1,2.45A2.43,2.43,0,0,0,.85,1.28a1.7,1.7,0,0,0,.22,0,1.82,1.82,0,0,1,.31.19c.59-.05.54-.11.26-.18S.89,1.18,1,1.09A2.85,2.85,0,0,1,2,1.2c.23.08.36.19.33.27,1.25,0,.14-.12.78-.37L4,1.61A133.34,133.34,0,0,1,17.5,1.4l-.34-.32c2,.18,3.37-.7,5.16,0l.61-.27c-.34.15.35.47-.18.68.55-.1,1.13,0,1.7-.08l-1-.15a1.89,1.89,0,0,1,1.72.13c1.5-.31-.89-.54-1.23-.81C21.82,1.14,21.8,0,19.77.24,18.51.42,19.9.53,19.82.7Z" style="fill:#f4f4f4"/><path d="M22.44,1.56l.31-.09A1.58,1.58,0,0,0,22.44,1.56Z" style="fill:#f4f4f4"/><path d="M.66,13.12c0,.16,0,.34,0,.59S.7,13.59.66,13.12Z" style="fill:#f4f4f4"/><path d="M25.17,1.38h0Z" style="fill:#f4f4f4"/><polygon points="26.18 0.61 25.61 0.6 25.71 0.74 26.18 0.61" style="fill:#f4f4f4"/><path d="M.27,19.07H.43C.38,19,.33,19,.27,19.07Z" style="fill:#f4f4f4"/><path d="M.17,35.17v-.35A.82.82,0,0,0,.17,35.17Z" style="fill:#f4f4f4"/><path d="M8.71,66.35a16.9,16.9,0,0,0,3.22-.47l-.07.17c.56-.08,2.38-.35,1.21-.64l-.29.14c-1.33.25-1-.27-2-.38-1.25.08-2,.7-3.08.56-.49,0-.42-.15-.27-.28-1.12,0-1.55.44-2.32.5-.13-.53-.76-.55-1.57-.46l-1.3.17a4,4,0,0,1-1.08,0,2,2,0,0,1,.22-.77,15.41,15.41,0,0,1-.06-1.6,12.37,12.37,0,0,0-.18-2c.32.71,0-1.26.38-1-.73-.37.33-3.82-.59-4.06.26-1.8-.06-.07.15-2.16.11,0,.11.36.13.5.18-.83-.4-1.27,0-2C1.29,51,1,52.42.73,51.43a3.66,3.66,0,0,1,.61-2.21c-.44-.15-.23-1.19-.45-2,0,.21-.11,1.4-.28.62.07-2-.28-1.61-.4-3.5.48-.95,0,1.89.39.23a11.28,11.28,0,0,0,.56,2.74A42.29,42.29,0,0,0,.9,42c.07-1,.23.49.28-.27C1.39,40,.68,39,.9,37.63l.25.29c-.34-.85.07-3.06-.11-4.67-.13.2-.21.34-.3.12.63,0-.32-2.24.12-3.82-.4.12-.62-1.42-.66-2.4.11-.34.27-.27.38-.26-.24,1.59.43,1.55.61,2.81C1,28.64,1.2,26.91.91,26l.31.36c.05-1.46-.7-1.28-.4-2.8l.23.15c0-3.07.37-6.68-.14-9.14-.19-.22-.63,1-.78,1.09.17,1.47.5,2.31.66,3.43H.43c.25.26.39,1.61.59.86.18.91-.32.69-.11,1.74C.53,21.59.49,21,.18,21l.18.91c-.14-.29-.12.55-.27.27.45,1.69-.17,2.36,0,4.11l.07-1c.2,0,.18.57.24,1a3.82,3.82,0,0,0-.38,1.66,7.9,7.9,0,0,1,.54,2.25C.19,29.94.37,31.9,0,32.1c.39.22.14,2,.37,2.17.08.56,0,1.33-.18,1.32,0-.08-.05-.25-.06-.42l0,.56c0-.06-.08,0-.08-.1,0,.5.27.5.08,1.14-.1,0-.1-.35-.15-.63-.06,1.32.6,2.32.24,3.42.19.22.21,1.75.63,1.42-.15.41-.49.26-.43,1.38.36.64-.13,1.25.1,2.09-.37-1.13-.1,0-.46-1-.14.76.33,1.9.27,3.22-.09.13-.19.13-.28.27.13.49.42,1.06.12,1.53l.26-.06a23.13,23.13,0,0,1-.33,3.13L.6,52.68A8.07,8.07,0,0,0,1,57.44C1,58,.87,58.83.76,58.82s-.1-.34-.17-.6C.57,59,.3,60,.7,60.49c.12.85-.27.62-.34,1.25.37,1.2.06,2.75.07,4.69.85,0,1.55-.09,1.73-.37-.33,0-.78,0-1.29-.07a19.58,19.58,0,0,0,.07-2.07c.1.35.27.08.29.57a7.9,7.9,0,0,1-.09,1.23,5.15,5.15,0,0,0,1.59,0l-.16.54C4.86,66.86,6.93,65.58,8.71,66.35Z" style="fill:#f4f4f4"/><path d="M.52,56.8l-.27,1,.23-.1A2.05,2.05,0,0,1,.52,56.8Z" style="fill:#f4f4f4"/><path d="M.48,57.66c0,.19.07.39.11.56a1.86,1.86,0,0,0,0-.59Z" style="fill:#f4f4f4"/><path d="M12.54,66.26a4,4,0,0,0,1.05,0A2.65,2.65,0,0,0,12.54,66.26Z" style="fill:#f4f4f4"/><polygon points="13.67 66.1 13.18 66.01 13.11 66.08 13.67 66.1" style="fill:#f4f4f4"/><path d="M41.85,65.63l1.55-.33c.27.16,2,0,1.45.25.92-.39,2.93,0,2.18-.58-4.54.2-10.8-.13-16,.37l.85-.23c-2.73.45-3.75-.49-5.94.4l.29-.46c-1.25-.13-2.39.66-3.7.18l.14.19c-.35,0-.49-.09-.84-.09l.14.09a6.1,6.1,0,0,1-2.37,0c-.07-.15.42-.06.7-.1-.42-.15-1.12.16-1.82.16s0-.21.08-.27c-2.1.2-3.06-.28-4.54.4-.15.12.54.23-.22.29a11.49,11.49,0,0,0,3.77-.24h-.35c1-.66.76.15,2.37-.14a9.22,9.22,0,0,1-1.41.42c1.87.5,2.67-.39,3.9.26l-.14,0a4.51,4.51,0,0,0,1.19-.12,4,4,0,0,0-.83-.19,1.41,1.41,0,0,0,.78-.48c.48.29.63-.14,1.4,0,.27.28-.64.25-.92.4l.91-.19c.84,0,.82.3,1.24.45.7-.21-.42-.15.16-.44.89.33,4.73.24,6.55,0-.63,0-.22.29-1,.24.28.07,1.26-.08,1.27-.28a14.31,14.31,0,0,1,4,.13l-.34-.21c1-.35,2.5.26,4.25.06h0c.56,0,1-.55,2.08-.44C42.35,65.4,41.79,65.38,41.85,65.63Z" style="fill:#f4f4f4"/><path d="M48,65.14l-.56.29c.62.07,1.4-.3,1.27-.49-.42.06-1-.07-1.05.1S47.72,65.18,48,65.14Z" style="fill:#f4f4f4"/><path d="M59.72,65.1c.22-.07.17-.18.26-.26a50.06,50.06,0,0,1-6.53-.07c-.83-.09-1,.35-2,.45l-.48-.3c-.57.19-2.3-.13-1.69.35a3.09,3.09,0,0,1,1-.14l-.08.17,1.12-.06-.36.21c1.52.29,1.07-.63,2.94-.43v.41a12.64,12.64,0,0,1,3,.14s0-.21-.2-.13-.48-.19-.34-.31c1.9-.33-.29.25,1,.42C59,65.26,62,65,62.91,65.36c-.75-.25.37-.52,1.28-.5.41.15-.29.25-.44.38a4.31,4.31,0,0,0,1.19.08c-.55-.23-.19-.54.79-.68C63.58,64.38,61.87,65.15,59.72,65.1Z" style="fill:#f4f4f4"/><path d="M60.36,64.75a.69.69,0,0,0-.38.09h.86Z" style="fill:#f4f4f4"/></g></g></svg>