<svg xmlns="http://www.w3.org/2000/svg" xmlns:xlink="http://www.w3.org/1999/xlink" viewBox="0 0 67.07 66.45"><defs><symbol id="salmonfly_icon" data-name="salmonfly icon" viewBox="0 0 30.98 77.79"><path d="M25.12,35.59l.05.21h0L25,35.45h0l.06.31h0l-.13-.32h0l0,.28h0l-.09-.28h0v.23h0l0-.29-.2-.08-.2.16c-.13.09-.16.09-.29,0-.39-.33-.79-.64-1.17-1-.63-.55-1.24-1.12-1.86-1.68l-.15-.13a1.31,1.31,0,0,0,0,.15c0,.34,0,.68,0,1A10.7,10.7,0,0,1,20.51,37a1.09,1.09,0,0,0,0,.67c.13.35.2.72.3,1.09l.37,1.36a4.14,4.14,0,0,1,.14,1.16,4.71,4.71,0,0,0,.11,1.06c.22,1,.42,2,.72,2.91.11.33.24.66.36,1s.14.47.21.7a.58.58,0,0,1,0,.41.58.58,0,0,0,0,.14l.15,0a2,2,0,0,1,1.13.67,3.6,3.6,0,0,1,.54.71c.18.38.43.73.59,1.13a.45.45,0,0,0,.11.17l1.55,1.57.07.06.2-.11a.21.21,0,0,1,.1,0c.06,0,.12.06.17,0a.35.35,0,0,0,.1-.26v-.12a.35.35,0,0,1,.13.41.53.53,0,0,1-.29.33,1,1,0,0,0-.22.2l-.12.16a.28.28,0,0,0,0,.12.87.87,0,0,1-.26.59.2.2,0,0,1-.25.06c-.08,0-.11-.08-.11-.22a.2.2,0,0,0,.23-.11c.07-.12.07-.14,0-.25l-.06-.07L25,50.69a.65.65,0,0,1-.14-.33.92.92,0,0,0-.34-.63c-.09-.06-.2-.11-.29-.16L24,50c-.09-.16-.18-.31-.25-.45a.19.19,0,0,1,0-.1.88.88,0,0,0,0-.17l-.08.17h0l0-.25h0l-.08.19h0l.06-.28h0a1.12,1.12,0,0,0-.05.13.26.26,0,0,1-.07.11l.05-.29h0l-.07.24h0l.05-.31h0l-.1.28h0l0-.33h0l-.08.28h0l0-.32h0l-.07.25h0v-.31h0l-.06.28h0l0-.31c-.11.08-.05.21-.13.28l0-.33h0l-.06.25h0v-.28h0l-.07.28h0v-.27h0l0,.21h0v-.24h0l-.06.24h0l0-.13-.06.12,0-.19,0,.14-.28,0-.21-.85,0,0c-.26,0-.26,0-.33-.22s-.17-.56-.25-.85-.06-.31-.1-.47a.42.42,0,0,0,0-.12.14.14,0,0,1,0-.15.13.13,0,0,0,0-.09.86.86,0,0,1-.09-.35c0-.05-.06-.1-.1-.15s.05-.22-.09-.31a.49.49,0,0,0,0-.2.46.46,0,0,0-.11-.16s0-.11,0-.18-.07-.1-.12-.16a.22.22,0,0,0,0-.27h-.13c.06-.11.16-.2.05-.33h-.15c.06-.12.19-.21.07-.34h-.15l0-.05.16-.07,0-.22H20.2l.18-.14,0-.18h-.2v0l.14-.1c0-.17,0-.17-.11-.21s0,0-.05,0c-.12-.24-.37-.35-.57-.52A5.84,5.84,0,0,0,19,41.6a2.42,2.42,0,0,0,.05.24l.27,1a1.29,1.29,0,0,1,0,.28c0,.08,0,.17,0,.26a1.21,1.21,0,0,1-.27,1c0,.05,0,.11.05.17l.36,1.23a1.53,1.53,0,0,1,0,.9.6.6,0,0,1-.09.22.49.49,0,0,0-.11.4,1,1,0,0,1,0,.17,3.69,3.69,0,0,0,.12,1.4,2.61,2.61,0,0,1,.08.84.73.73,0,0,1-.22.51c-.13-.16-.12-.41-.34-.52-.06.11-.1.22-.16.31a1.18,1.18,0,0,0-.13.86c0,.37.11.74.15,1.12a2.21,2.21,0,0,1-.1,1,1.45,1.45,0,0,0,0,.59,6.15,6.15,0,0,1,.06.75,2,2,0,0,0,0,.41c.1.43.23.86.33,1.29a.86.86,0,0,1-.05.63c0,.06-.08.11-.14.21-.06-.13-.09-.23-.13-.31s-.08-.18-.2-.21a.53.53,0,0,0-.05.44,2,2,0,0,1,.14.76,9.51,9.51,0,0,0,.18,1.85c0,.1,0,.2,0,.3a.48.48,0,0,1,0,.17,7.68,7.68,0,0,0,0,1.44c.05.28.14.55.17.83a8.67,8.67,0,0,1,.06.88.36.36,0,0,1-.16.35c-.12-.18-.1-.45-.36-.55a1.54,1.54,0,0,0-.07.27,2.12,2.12,0,0,0,0,.44.25.25,0,0,1-.09.21A3.17,3.17,0,0,1,18,64a.27.27,0,0,0-.11.2c-.07.65-.15,1.29-.22,1.93a.43.43,0,0,1-.18.3.27.27,0,0,0-.09.25c0,.18,0,.35.05.53a2.1,2.1,0,0,1-.18,1,.54.54,0,0,0-.05.22c0,.43-.05.86,0,1.3a1.4,1.4,0,0,0,.05.54,4.73,4.73,0,0,0,.48,1.52c.3.77.62,1.52.94,2.28.16.39.34.77.5,1.15s.22.52.32.78l.42,1,.32.81c-.12,0-.16,0-.2-.1l-.53-.92c-.68-1.18-1.36-2.36-2-3.55-.25-.45-.48-.91-.71-1.37a4.58,4.58,0,0,1-.46-2.12V69.3l-.13.14a4.2,4.2,0,0,0-.58.92s-.06.09-.09.09-.08,0-.1-.09a4.67,4.67,0,0,0-.67-1c-.07.06,0,.13,0,.2a4.75,4.75,0,0,1-.26,1.83c-.15.37-.32.73-.5,1.08-.76,1.47-1.58,2.9-2.43,4.32l-.54.93c0,.08-.08.15-.2.1.08-.19.15-.38.22-.57l.41-1c.1-.24.22-.49.32-.73s.24-.56.36-.85.2-.45.29-.68l.48-1.13c.19-.47.39-.94.57-1.41.11-.28.21-.57.31-.85,0,0,0,0,0-.07a5.09,5.09,0,0,1,0-.54c0-.27,0-.55,0-.82s0-.52,0-.77a.14.14,0,0,0,0-.09,2.34,2.34,0,0,1-.17-1.38v-.06a.39.39,0,0,0-.13-.45.41.41,0,0,1-.13-.27l-.21-1.93A.21.21,0,0,0,13,64l-.37-.32a.3.3,0,0,1-.08-.2c-.05-.23,0-.48-.11-.69-.14,0-.14,0-.35.53a.27.27,0,0,1-.16-.27,3,3,0,0,1,0-.67c.05-.34.13-.67.19-1a2.3,2.3,0,0,0,.05-.45c0-.3,0-.6,0-.91h0a1.66,1.66,0,0,1,0-.91,14.55,14.55,0,0,0,.15-1.62,2.12,2.12,0,0,1,.12-.71.63.63,0,0,0,0-.47c-.23.08-.2.32-.31.47-.1,0-.13-.09-.16-.16a.89.89,0,0,1-.05-.66c.11-.42.23-.85.33-1.27a1.74,1.74,0,0,0,.05-.39,4.25,4.25,0,0,1,.06-.87,1,1,0,0,0-.05-.49,2.37,2.37,0,0,1-.09-1c0-.37.09-.74.14-1.11a.09.09,0,0,0,0,0,1.51,1.51,0,0,0-.29-1.12c-.21.11-.21.34-.34.52,0,0-.09-.08-.11-.12a3.15,3.15,0,0,1-.11-.44,2.2,2.2,0,0,1,.09-.84,3.57,3.57,0,0,0,.11-1.3v-.06a1.15,1.15,0,0,0-.16-.67,1.27,1.27,0,0,1-.06-.94c.12-.43.25-.86.37-1.29l.06-.18a1.28,1.28,0,0,1-.27-1,.38.38,0,0,0,0-.15.91.91,0,0,1,.05-.49l.24-.91c0-.06,0-.11,0-.19l-.12.05a8.2,8.2,0,0,0-1,.71c-.06,0-.08.17-.2.18s0,.1-.06.16l.17.11c0,.1-.13,0-.21.05l0,.17.19.14h-.22l-.05.18.16.15h-.19l-.05.18.15.16h-.17c-.09.11-.06.21.08.32l-.16,0c-.09.1-.05.2,0,.3-.08,0-.17,0-.16.13a.65.65,0,0,0,0,.19s-.1.08-.12.13a.71.71,0,0,0,0,.2.78.78,0,0,0-.1.15c0,.06,0,.12,0,.2a.24.24,0,0,0-.1.26s0,.07,0,.11a.32.32,0,0,0,0,.09,1.78,1.78,0,0,1-.1.38c-.05.3-.16.59-.23.88s-.09.33-.13.49-.06.2-.28.17H9.09l-.22.87-.27.06,0-.11,0,.15,0-.12,0,.17-.08-.3v.26h0l0-.18h0v.24h0l-.06-.26h0v.25h0l-.07-.22h0l0,.29h0L8,48.76H8L8,49H8l-.06-.28c-.1.1,0,.21,0,.32l-.07-.24h0l0,.31h0l-.08-.28h0l0,.31h0L7.57,49h0l0,.25h0l-.08-.19h0l0,.28h0l-.1-.24h0l0,.27h0l-.08-.18h0l0,.25h0l-.07-.16h0l0,.22-.06,0c0,.2-.17.33-.18.56a2,2,0,0,1-.13-.24c0-.08,0-.16,0-.25a1.69,1.69,0,0,0-.3.17.9.9,0,0,0-.35.63A.79.79,0,0,1,6,50.7l-1.4,1.83s0,0,0,0-.15.1-.09.22.1.19.24.18h0a.16.16,0,0,1-.12.2.19.19,0,0,1-.24-.06.87.87,0,0,1-.26-.59.19.19,0,0,0,0-.1c0-.07-.1-.14-.15-.21A.54.54,0,0,0,3.73,52a.45.45,0,0,1-.18-.69l.06,0a.41.41,0,0,0,.14.43c.17-.08.28.06.42.12a.81.81,0,0,0,.1-.09l1.49-1.51A1.19,1.19,0,0,0,5.92,50c.13-.25.27-.49.4-.73l.08-.21a1.3,1.3,0,0,1,.08-.17c.18-.24.36-.49.57-.72a2,2,0,0,1,1.12-.65l.15,0c0-.06,0-.11,0-.16a.46.46,0,0,1,0-.38,5.83,5.83,0,0,1,.22-.71,20.59,20.59,0,0,0,1-3.53c.06-.27.12-.55.17-.83a.71.71,0,0,0,0-.2,6.22,6.22,0,0,1,.29-2.14c.14-.48.25-1,.39-1.46.06-.23.15-.45.22-.68a.29.29,0,0,0,0-.16,9,9,0,0,1-.3-1.55,14.07,14.07,0,0,1,0-2.34v-.52a1.37,1.37,0,0,0,0-.16L10,32.8c-.61.56-1.22,1.13-1.84,1.68-.38.34-.78.66-1.17,1-.16.12-.2.12-.36,0l-.16-.13-.21.07a1,1,0,0,1,0,.17.25.25,0,0,1,0,.14v-.24h0l-.08.3h0l0-.29h0L6,35.79H6L6,35.45H6l-.17.38h0l0-.23a.14.14,0,0,0,.06-.14h0v.15l-.2.27c0-.17.17-.29.14-.47l-.29.54c0-.24.25-.37.15-.6l-.28.57c0-.21.2-.37.17-.63a.88.88,0,0,0-.17.31,1.11,1.11,0,0,1-.17.27l.12-.29c0-.1.11-.19.06-.35-.14.23-.19.46-.32.65.07-.22.14-.43.2-.65l0,0c-.13.21-.18.46-.32.67l.12-.35c0-.12.08-.24.13-.36l0,0s0,0-.06.06c-.07.18-.14.36-.2.53a1.09,1.09,0,0,1-.14.23l.3-.86a.88.88,0,0,0-.21.39,1,1,0,0,1-.19.4L4.93,35a.65.65,0,0,0-.18.32c0,.11-.07.23-.12.34a.63.63,0,0,1-.13.2L4.84,35a.57.57,0,0,0-.21.37,2.83,2.83,0,0,1-.17.4,2.8,2.8,0,0,1,.3-.82c-.12.05-.14.06-.18.17s-.06.23-.11.34a.94.94,0,0,1-.17.31l.16-.43.15-.44c-.07,0-.11.07-.14.15s-.07.25-.11.38a1,1,0,0,1-.21.37l.27-.68,0,0a1.81,1.81,0,0,1-.29.59l.18-.46,0,0-.09.21a.63.63,0,0,1-.13.2L4.22,35c-.16.19-.19.44-.39.62l.32-.7,0,0c-.15.21-.17.48-.37.66A1.61,1.61,0,0,0,4,35l-.15.32c-.05.08-.11.16-.16.25l0,0a.32.32,0,0,0,.13-.23l-.14.17,0-.17-.14.14,0-.15.1-.13,0,0-.07.15-.09.06c0-.05-.1-.08-.06-.16l-.08,0c0-.14,0-.28,0-.42a1.22,1.22,0,0,0-.07-.17l-.13-.39c-.22,0-.46,0-.71,0-.42,0-.85,0-1.28,0a.49.49,0,0,1-.43-.11,3.7,3.7,0,0,0-.33.21c-.13.1-.13.13-.08.29-.16,0-.24,0-.21-.15a.67.67,0,0,1,.1-.28,1.89,1.89,0,0,1,.2-.27.33.33,0,0,0,.07-.33c0-.24-.07-.49-.09-.73a.79.79,0,0,1,.08-.29.13.13,0,0,1,.18-.08s0,0,0,0a1.11,1.11,0,0,0,.11.62.3.3,0,0,0,.27.24l.65.11,1.2.13a.41.41,0,0,0,.27-.05l.56-.26.3-.11a.46.46,0,0,1,.41,0c.42.25.84.49,1.24.75a1.77,1.77,0,0,1,.33.34A1.42,1.42,0,0,1,6,34.5l.15,0a.14.14,0,0,0,.13-.18.66.66,0,0,1,.34-.66l2.2-1.69c.27-.21.53-.45.78-.68a3.38,3.38,0,0,0,.31-.35,1,1,0,0,0,.24-.6c0-.43.11-.86.16-1.29a2.34,2.34,0,0,1,.8-1.45,2.12,2.12,0,0,1,.64-.43c.08,0,.15-.1.23-.15h0c0,.06,0,.06.08,0l.12-.08c.12,0,.12,0,.13-.1l-.13.1.17-.27,0,0-.2.1h0c0-.14.16-.14.25-.22a.48.48,0,0,0-.46.07l.11-.12-.4-.06a1.64,1.64,0,0,0,.49-.1.7.7,0,0,0-.47-.11s.05,0,.08,0,0-.06,0-.1a.25.25,0,0,0,.33,0l-.33,0-.09,0v0l.58,0v0l-.33-.17a.47.47,0,0,1-.31-.41,1.41,1.41,0,0,0,.35.21,1.52,1.52,0,0,0,.41.07c-.1-.21-.37-.24-.37-.47.12,0,.18.21.36.21l-.28-.31.18.14.35.26a.55.55,0,0,1,0-.09l-.3-.35c-.07-.07-.16,0-.24.05L11.9,25h.32l-.13-.18.36.08-.21-.64c-.28.06-.46.28-.73.35-.08-.13-.07-.33-.29-.43l.1.2-.16-.12,0,.14-.12-.06.07.17L11,24.4l.09.19-.16-.1,0,.17-.13-.1,0,.15c-.14,0-.09-.15-.13-.23l0,.29-.1,0,0,.14-.13-.09v.13c-.11,0,0-.13-.09-.19a.34.34,0,0,1-.12.34l-.06-.17v.24l-.08,0,0,.11-.07,0,0,.14L10,25.11v.22l0,0-.09.1,0-.09,0,.19-.06-.14,0,.18,0,0-.06-.12,0,.18-.07-.1-.31.28c-.05.05-.08.13-.18.09S9,26,9,26s0,.16-.17.18-.13-.19-.19-.3a.29.29,0,0,0-.22-.15A3.66,3.66,0,0,1,8,25.62c-.09,0-.12.23-.29.22L8,25.56c-.16.05-.26.23-.47.2.2-.07.2-.07.4-.32-.16,0-.25.24-.42.22l.43-.33c-.19,0-.24.15-.4.18l.32-.29c-.21,0-.28.24-.47.21l.4-.28c-.17-.08-.21.1-.32.13.12-.19.12-.19.39-.25,0,0-.06-.09-.08-.08a.83.83,0,0,0-.21.06.76.76,0,0,0-.13.1c.11-.16.11-.16.38-.26,0-.1-.08-.1-.33,0,0-.15.27-.06.34-.22a.55.55,0,0,0-.48.16.49.49,0,0,1,.36-.23s.12,0,.09-.11c-.21-.05-.36.1-.52.19a.6.6,0,0,1,.42-.25.21.21,0,0,0,.11-.08c-.16-.07-.29,0-.45.08.12-.18.31-.14.45-.22a.58.58,0,0,0-.49.09.26.26,0,0,1,.22-.15A2,2,0,0,0,7.79,24a1.47,1.47,0,0,0-.42,0L7.58,24l.24-.05a.74.74,0,0,0-.59.05.33.33,0,0,1,.26-.13l.3-.05v-.36l-.65.07a2.58,2.58,0,0,1,.67-.14l.07-1a1.72,1.72,0,0,0-.77-.19l.11,0-.14-.05.26,0L7.22,22a.23.23,0,0,0,.29-.15l-.11-.12a.65.65,0,0,1,.59,0,.61.61,0,0,0,0-.12l0-.12L5.79,19.57l-.44,0c-.09.07-.07.21-.1.34a.39.39,0,0,1,0-.51c.08-.08.14-.17.21-.25a.23.23,0,0,1,.07-.07c.25-.07.26-.31.34-.49s.07-.27.2-.37.08-.16.13-.23.21-.14.36,0l-.1.05a.25.25,0,0,0-.16.23,1,1,0,0,0,.25.87c.54.59,1.11,1.16,1.69,1.7l.06,0h0a.39.39,0,0,1,.4-.15.57.57,0,0,1,.39.38,1.2,1.2,0,0,1,0,.65,4.26,4.26,0,0,1-.11.42,4,4,0,0,0-.18,1.57s0,.06,0,.09,0,0,0,0l.17-.14c.2-.21.39-.42.58-.64.53-.58,1.05-1.17,1.57-1.76a.39.39,0,0,0,.1-.16,16,16,0,0,0,.39-1.8c0-.13,0-.25,0-.38s0-.24,0-.35a.47.47,0,0,1,.71-.34l.62.28.06,0,.15-.32A3,3,0,0,1,13,18c-.16-.16-.29-.32-.17-.53a2.73,2.73,0,0,1-.22-.4.86.86,0,0,1,.16-.95.62.62,0,0,0,.16-.39c0-.23.08-.45.13-.7l-.76-.43a.35.35,0,0,0-.14-.4.28.28,0,0,1-.09-.16l-.21-.43c0-.11-.16-.19-.15-.32a.05.05,0,0,0,0,0,.21.21,0,0,1-.1-.19.18.18,0,0,0-.05-.08.17.17,0,0,1-.09-.15c0-.08-.15-.13-.15-.2a.28.28,0,0,0-.1-.23s-.1-.05-.07-.13,0,0,0,0S11,12.08,11,12a.35.35,0,0,0-.1-.23.33.33,0,0,1-.12-.19.16.16,0,0,0-.05-.1,4.39,4.39,0,0,1-.34-.5,8.15,8.15,0,0,1-.49-.8L8.5,7.89,7.76,6.64c-.22-.36-.45-.72-.68-1.08C7,5.38,6.87,5.18,6.76,5L6.07,3.93c-.11-.18-.2-.36-.31-.53s-.38-.6-.59-.89L3.63.39A.17.17,0,0,1,3.57.28.11.11,0,0,0,3.51.16c-.08,0,0-.1,0-.16.27.29.54.58.79.88a22.19,22.19,0,0,1,1.4,1.94C6.51,4,7.3,5.19,8.07,6.38c.33.5.63,1,.94,1.51l.66,1c.2.3.38.6.57.91s.48.76.73,1.14l1.24,1.94.45.69.08-.15,1.19.52.16-.31.11,0,0,0a2.2,2.2,0,0,1,.44-.79,1.45,1.45,0,0,0,.1-.18l.1-.15c.12-.14.17-.14.3,0l.15,0s.09,0,.08.05.1,0,.17,0l.06,0,.19,0c.12-.13.18-.13.29,0l0,.05a5.38,5.38,0,0,1,.61,1.07l0,0,.13,0,.15.31,1.16-.51.11.12,0,0c.35-.54.7-1.08,1-1.62l1.17-1.85c.29-.45.59-.9.88-1.36.52-.83,1-1.66,1.56-2.49S24,4.76,24.47,4s1.05-1.58,1.6-2.36c.29-.42.63-.81,1-1.21A5.93,5.93,0,0,1,27.46,0c.06,0,.1.1,0,.14s-.1.25-.21.34A2,2,0,0,0,27,.82l-.27.34-.24.34c-.26.37-.53.73-.78,1.11s-.38.61-.57.91-.28.4-.41.61l-.6,1-.63,1c-.23.38-.44.76-.66,1.13-.66,1.12-1.32,2.23-2,3.34a5,5,0,0,1-.32.48c-.1.15-.18.31-.28.45a1.41,1.41,0,0,1-.18.29s0,.1-.06.15l-.05.09h0c-.1.07-.1.18-.14.27s-.17.12-.16.25a0,0,0,0,1,0,.06.23.23,0,0,0-.13.24s0,0-.05,0l0,.05c0,.15-.15.23-.18.36s-.14.14-.12.26-.06.11-.09.16-.05.11-.08.15-.09.26-.22.36a.26.26,0,0,0-.07.32l-.77.43s0,.09,0,.13c0,.2.09.4.12.61a.69.69,0,0,0,.14.33.9.9,0,0,1,.11,1.12,1.43,1.43,0,0,1-.15.22c.11.25,0,.42-.19.58a3.61,3.61,0,0,1-.3.25l.14.34.66-.3a.47.47,0,0,1,.36-.06.46.46,0,0,1,.36.37,1,1,0,0,1,0,.24,8,8,0,0,0,.28,1.75,3.05,3.05,0,0,0,.17.61,3.63,3.63,0,0,0,.41.47l1.46,1.66c.12.13.25.26.37.4l.17.13a1.69,1.69,0,0,0,.05-.58,4.47,4.47,0,0,0-.23-1.2,2,2,0,0,1-.1-.8.66.66,0,0,1,.27-.48.37.37,0,0,1,.52,0l.06.06.12-.1,1.57-1.58a1.32,1.32,0,0,0,.18-.22,1,1,0,0,0,.14-.77c0-.13-.13-.19-.26-.21.11-.14.2-.15.31-.06a1.71,1.71,0,0,1,.11.14c.05.07.1.13.15.21a1.73,1.73,0,0,1,.1.24c.06.15.11.3.18.44s.06.05.1.07a.37.37,0,0,1,.19.18.93.93,0,0,0,.13.15.45.45,0,0,1,.09.54l-.1-.36H25.2l-2.29,1.88.08.24a.71.71,0,0,1,.59,0l-.1.15c0,.05.11.14.24.15v0h0l-.06,0,.24,0-.12,0,.15.06a1.77,1.77,0,0,0-.8.17l.08,1.3.53.11v0l-.52-.05c.17.13.4.07.57.22l-.56-.1v0c.12.1.3,0,.44.16L23.21,24c.13.13.33.08.46.24a1.44,1.44,0,0,0-.23-.07.6.6,0,0,0-.23,0c.12.1.32.06.44.24a.77.77,0,0,0-.45-.11c0,.1.07.09.12.11s.19,0,.3.17a.62.62,0,0,0-.41-.11c0,.09,0,.09.07.1a.53.53,0,0,1,.37.23.63.63,0,0,0-.46-.16c0,.09,0,.1.1.11s.2,0,.24.15h0l-.28-.09-.11,0c.16.08.34.08.4.25-.26-.16-.31-.17-.38,0a.46.46,0,0,1,.38.25c-.11,0-.16-.2-.31-.14l.36.29c-.15,0-.22-.18-.4-.19l.24.25v0l-.29-.19,0,0,.27.27v0l-.26-.17c.06.18.2.24.35.31-.2,0-.31-.15-.46-.22l.26.29c-.16,0-.19-.19-.29-.22a2.9,2.9,0,0,1-.36.14.24.24,0,0,0-.2.15l-.19.3c-.11,0-.14-.08-.17-.16s0-.18-.17-.15-.07,0-.1-.07l-.33-.31-.05.1-.12-.08v-.18l-.06.15,0-.19-.06.1c-.09-.16-.12-.22-.11-.33l-.07.19h0l0-.1-.08,0V25l-.06.19h0v-.26l-.06.22c0-.06-.05-.13-.07-.13s0-.07-.05-.11,0-.09,0-.14l-.06.21h0l0-.13-.14.1,0-.16-.11.06,0-.3c-.05.08,0,.2-.14.25l.05-.14h0l-.13.09.07-.19-.15.11v-.05a.21.21,0,0,0,0-.12l-.12.1h0l.06-.13,0,0-.14.09.07-.16h0l-.13.1h0l.09-.15c-.2.06-.2.26-.29.41l-.71-.38-.2.59c.11.13.22,0,.34,0l-.11.13c.08.09.17.05.28,0l-.19.17c0-.07,0-.12-.09-.11l-.19.06,0-.05,0,0-.1.09a.17.17,0,0,0-.13.15l.16-.12-.2.31,0,0,.33-.23.17-.11-.26.26c.15,0,.21-.12.33-.18,0,.23-.25.25-.33.41a.74.74,0,0,0,.73-.25c0,.34-.29.41-.5.52a.5.5,0,0,1-.13,0A.45.45,0,0,0,19,26a.86.86,0,0,1,.28,0l-.08,0a.36.36,0,0,0-.29,0,.23.23,0,0,0,.29,0l0,.08.15,0,0,0a.48.48,0,0,0-.44.09,1.32,1.32,0,0,0,.47.1l-.37.06.09.12a.49.49,0,0,0-.42-.08l.26.25-.23-.13v0l.16.27-.16-.13c0,.14.07.14.16.13L19,27l0,0L19,27a1.57,1.57,0,0,0,.37.24A2.42,2.42,0,0,1,20.66,29c.08.49.12,1,.19,1.47a.53.53,0,0,0,.08.25,2.65,2.65,0,0,0,.59.7c.25.23.51.44.77.64l2.12,1.64a.64.64,0,0,1,.29.6c0,.16,0,.19.28.22a1.4,1.4,0,0,1,.1-.16,1.07,1.07,0,0,1,.4-.39c.39-.23.78-.46,1.16-.7a.52.52,0,0,1,.48-.05c.21.08.42.17.62.27a.93.93,0,0,0,.63.13L30,33.37a.36.36,0,0,0,.33-.28,1.17,1.17,0,0,0,.09-.61.13.13,0,0,1,.19.07.72.72,0,0,1,.07.28,3.94,3.94,0,0,1-.08.69.44.44,0,0,0,.09.4,1,1,0,0,1,.28.5c0,.15,0,.18-.2.18.09-.18,0-.27-.15-.35s-.17-.1-.26-.16a.56.56,0,0,1-.48.1c-.52,0-1,0-1.55,0l-.42,0a1.93,1.93,0,0,1-.16.46,1.51,1.51,0,0,0-.09.47L27.52,35l0,0,.13.23v0l-.13-.12,0,.16-.14-.19h0l.06.16c-.14,0,0,.07-.06.12l-.12-.15,0,.15,0,0A3.6,3.6,0,0,0,27,35a1.93,1.93,0,0,0,.22.58c-.19-.17-.22-.44-.39-.63l.24.6c-.14-.15-.18-.35-.31-.51l.21.57c-.13-.12-.14-.29-.26-.4l.11.35a2.23,2.23,0,0,1-.22-.47,1.34,1.34,0,0,0,.2.65.71.71,0,0,1-.18-.3c-.05-.13-.08-.27-.13-.4s0-.09-.11-.13l.23.72c-.18-.19-.13-.49-.35-.69l.26.8c-.11-.09-.12-.23-.17-.35a.72.72,0,0,0-.19-.38c.05.17.1.32.15.46l.15.43c-.22-.24-.18-.59-.41-.82l.14.39.12.42a.6.6,0,0,1-.12-.24l-.09-.27a1,1,0,0,0-.16-.26l.25.77a4.08,4.08,0,0,0-.37-.72c0,.25.16.48.19.73l-.28-.68h0a.4.4,0,0,0,0,.11,4.58,4.58,0,0,1,.17.56l-.28-.65c-.07.16,0,.25,0,.34a1.11,1.11,0,0,1,.09.31l-.27-.57c-.06.11-.06.11,0,.29l.12.27h0l-.27-.52c-.06.11-.06.11,0,.26a.85.85,0,0,1,.1.28l-.27-.47c0,.15.12.26.13.41l-.19-.23v-.14h0ZM12.47,25.92l0-.05c-.05-.06-.11-.07-.2,0Zm6.21-.08v0l-.22.06C18.57,25.94,18.62,25.87,18.68,25.84Zm-6.15-.67,0,0,.08.09,0,0ZM19.87,24h0l0,.11h0Zm-8.7.1h0l0-.1h0Z" style="fill:#fff"/><path d="M23.88,22.75c-.12.14-.23,0-.34,0a1.27,1.27,0,0,1-.34,0c.11-.1.25-.05.4-.09a.35.35,0,0,1-.12-.05,1.19,1.19,0,0,1-.08-.2s0-.06.07-.07a.19.19,0,0,1,.14,0h-.06l-.1,0A1,1,0,0,0,23.88,22.75Z" style="fill:#fff"/><path d="M7.12,22.75a.84.84,0,0,0,.4-.33l-.19,0,.11,0s.11,0,.13,0,0,.09,0,.14,0,.13-.11.15l.36,0v0a.27.27,0,0,1-.09,0,1,1,0,0,0-.45,0S7.14,22.83,7.12,22.75Z" style="fill:#fff"/><path d="M7.75,23.24c-.21.07-.46,0-.65.14A.67.67,0,0,1,7.75,23.24Z" style="fill:#fff"/><path d="M23.84,23.65l-.61-.09A.83.83,0,0,1,23.84,23.65Z" style="fill:#fff"/><path d="M23.23,23.22a1,1,0,0,1,.57.08l-.57,0Z" style="fill:#fff"/><path d="M7.12,23.67a1.28,1.28,0,0,1,.61-.15C7.55,23.65,7.31,23.56,7.12,23.67Z" style="fill:#fff"/><path d="M23.78,23h-.57A.67.67,0,0,1,23.78,23Z" style="fill:#fff"/><path d="M23.76,23.46l-.52-.05A.69.69,0,0,1,23.76,23.46Z" style="fill:#fff"/><path d="M23.77,23.13l-.57,0A.66.66,0,0,1,23.77,23.13Z" style="fill:#fff"/><path d="M7.2,23.15a.73.73,0,0,1,.56-.07c0,.05-.12,0-.18,0H7.4Z" style="fill:#fff"/><path d="M7.74,23.7l-.48.07v0l.47-.09Z" style="fill:#fff"/><path d="M7.21,23a.68.68,0,0,1,.56,0Z" style="fill:#fff"/><path d="M23.27,22.4c.11-.17.25-.16.41-.16Z" style="fill:#fff"/><path d="M7.31,22.24a.41.41,0,0,1,.4.14Z" style="fill:#fff"/><path d="M11.54,26.62l.29-.09v0l-.28.08Z" style="fill:#fff"/><path d="M12,27l.15-.23h0L12,27Z" style="fill:#fff"/><path d="M23.53,24.87l.15.08,0,0-.13-.12Z" style="fill:#fff"/></symbol></defs><title>salmonfly</title><g id="Layer_2" data-name="Layer 2"><g id="Layer_1-2" data-name="Layer 1"><use width="30.98" height="77.79" transform="translate(21.33 3.33) scale(0.77)" xlink:href="#salmonfly_icon"/><polygon points="65.61 65.98 65.7 65.26 65.45 65.03 65.61 65.98" style="fill:#f4f4f4"/><path d="M66.53,62.58l-.1-1.23c-.74.7-.53-.25-1.06,1.67.12.68.37,2.16.66,2a8.53,8.53,0,0,1-.22-1.92c.21.31.19,1.08.47,1.45.23-1.17-.18-.73-.08-2Z" style="fill:#f4f4f4"/><path d="M65.8,61.12c.12.11.25.23.36.21C66,61.22,65.87,60.62,65.8,61.12Z" style="fill:#f4f4f4"/><path d="M65.72,60.37c0-.78.27,0,.31-.06l-.47-.89Z" style="fill:#f4f4f4"/><path d="M65.75,57.14l0-.36C65.63,56.91,65.7,57,65.75,57.14Z" style="fill:#f4f4f4"/><path d="M65.7,55.56a2,2,0,0,0,0,1.22l0-.05c.14-.44.48,0,.39.69.07.76-.26.69,0,1.34l.27-.89A6.53,6.53,0,0,0,65.7,55.56Z" style="fill:#f4f4f4"/><path d="M65.75,57.14a3,3,0,0,1,0,.43A.56.56,0,0,0,65.75,57.14Z" style="fill:#f4f4f4"/><polygon points="65.71 58.77 65.78 59.17 65.93 59.07 65.71 58.77" style="fill:#f4f4f4"/><path d="M65.67,52.91c.46.18,0,1.89.31,2.1,0-1,.32-1.88.57-1.65l-.14-1.16C66.24,51.81,65.89,52.3,65.67,52.91Z" style="fill:#f4f4f4"/><path d="M66.84,50.64a.88.88,0,0,1-.08-.26C66.78,50.51,66.8,50.61,66.84,50.64Z" style="fill:#f4f4f4"/><path d="M66,44.8l.47,2.7c-.15-.25-.29-.15-.35-.77-.06,1.2.24,1.35.19,2.34-.43.3,0-1.74-.42-1.17a5.11,5.11,0,0,0,.4,2.29L66,51.3l.47-.38c.14-.45-.37-.9,0-1.18s.24.31.29.63c-.1-.72.37-1.95.31-3.4S66.27,45.8,66,44.8Z" style="fill:#f4f4f4"/><polygon points="66.57 44.7 66.75 44.52 66.5 44.64 66.57 44.7" style="fill:#f4f4f4"/><path d="M66,41.75l.3,1.4a.93.93,0,0,1-.23.34c.11-.05.29.32.38.26.43-.65-.13-1.72-.21-2.47.19-2,.23.09.64-.69,0,.56-.12.58-.15,1.36a6.91,6.91,0,0,0-.08-3.54c0,.23-.17.28-.13.72l-.14-.82A7.55,7.55,0,0,0,66,41.75Z" style="fill:#f4f4f4"/><path d="M66,44.26c0-.52,0-.72.06-.76C65.9,43.63,65.81,43.81,66,44.26Z" style="fill:#f4f4f4"/><path d="M66.59,38a1,1,0,0,0,0,.42A1.21,1.21,0,0,0,66.59,38Z" style="fill:#f4f4f4"/><path d="M66.08,38.78l0-1-.2.39C66,38.32,66,38.81,66.08,38.78Z" style="fill:#f4f4f4"/><path d="M66.68.13s0,0,0,0a5.28,5.28,0,0,0-.19,2c-.18-.09-.19-1-.25-1.59a3.85,3.85,0,0,0-.55.06,1.78,1.78,0,0,1,.4.08C66.05,1,66,1,65.94.92s-.39.15-.36.25h.11c0,1,.28,1.53.22,2.66-.06-.06-.17,0-.25.12a26.93,26.93,0,0,1,.17,5.3A26.76,26.76,0,0,0,66,13.11c-.12,4.91.12,10-.1,15.31l.46.75c-.23.26,0,1.26-.3,1.11a4.55,4.55,0,0,0,0-.91c-.4,1.13,0,3-.11,4.35.08-.15.47-.37.54,0-.5-.1,0,1.61-.57,2-.14,1.36.44,0,.36,1.47.3.14.15-1.36.37-1.61.24.44-.1,1.27.21,1.21.15-2.26-.47-6.47-.64-9.93l.28.37a18.57,18.57,0,0,1,.24-6.06c-.26.33.15-2.61-.45-2.35a4.81,4.81,0,0,0,.16-1.22l-.19-.17c0-.91.3-.76.28-1.81-.26.68-.34-.07-.55-.37.29-1.2.54-2.59.78-3.65a1.14,1.14,0,0,0-.29.55c.09-.72-.16-.6-.25-.79,0-.7.33-.63.49-.59.11-1.28-.53-1.85-.32-2.8l-.26.33c-.07-1.31.23-2.42.14-3.87.36-.7.31,1.2.47,1.79a6.45,6.45,0,0,1,.21-1.11c-.18-.62-.43-1.67-.61-2.44.1.19.18.21.24.14a.52.52,0,0,0,.07-.18,1.46,1.46,0,0,0,0-.35c0-.71,0-1.72.07-2.18Z" style="fill:#f4f4f4"/><path d="M66.92,5.14a4,4,0,0,0,.15.41,1.7,1.7,0,0,1,0-.48C67,5.05,67,5.08,66.92,5.14Z" style="fill:#f4f4f4"/><path d="M66.68.13s0,0,0,0C66.39.11,66.46.12,66.68.13Z" style="fill:#f4f4f4"/><path d="M65.8,9.44l0-.19V9Z" style="fill:#f4f4f4"/><path d="M67,10.52c-.09.29-.18.68-.28,1.11C66.85,11.51,66.94,11.41,67,10.52Z" style="fill:#f4f4f4"/><path d="M66.71,19.38c.05.27.13.12.22.31C66.94,19.13,66.85,18.94,66.71,19.38Z" style="fill:#f4f4f4"/><path d="M67,3.54l-.08-1.15-.07-.73,0,.68a1.26,1.26,0,0,0,0,.26l0,.19Z" style="fill:#f4f4f4"/><path d="M45.79,1.25a16,16,0,0,0,3.6.19c2.2-.16.28-.69,2.37-.73l-.36.65c2.09,0,5.05.1,6.82-.48.15.08.52.18,0,.28,1.39,0,.72-.94,2.58-.72-1.73.41.57.39.09.79l-.27.05c1.18,0,2.74-.26,3.52-.23.06-.17-.71-.43.46-.45-.55,0-.29-.22-.28-.39A21.88,21.88,0,0,0,62,.5c-.6-.22.41-.07-.2-.28l-.86.2c-.64,0,.65-.22-.34-.27a3.62,3.62,0,0,1-1.69.24l.22-.08c-.59.09-1.43,0-1.15.35L57.26.3l.12.24C55.76.45,55.15-.15,53.05.16c.5.08,0,.21-.23.26C53.69.59,53.9.23,54.73.2c.12.25-1.29.54-.28.69C53.34.6,52.36.93,51.89.31c-1.34,0-1.84.26-3.19.12l0-.09c-.26.41-1.11-.19-2.11.23l.72.09c0,.17-.39.18-.87.21.06-.07.06-.07-.1-.15-.15.3-1.67.34-1.86.43A14,14,0,0,0,46.69.88C46.31,1.06,46.43,1.3,45.79,1.25Z" style="fill:#f4f4f4"/><path d="M59.54.17l-.43.14A.81.81,0,0,0,59.54.17Z" style="fill:#f4f4f4"/><path d="M39.75.74C38.9.67,40,.48,39.19.35c-.87.2,1,.42.14.73-.52-.18-1.37.13-1.72.14a.36.36,0,0,0,0-.65A8.24,8.24,0,0,1,36,.47c1.37.25-1.16.15.08.41-.09.24-1.39.41-1.91.23,0-.17.46-.13.81-.14.28-.32-.87-.17-1.07-.46C32.6,1,28.4.92,29.6,1.63a3.26,3.26,0,0,0,1.31-.07c-1.36-.14,0-.37.11-.5.58.12,1.58-.11,1.35.15l-.92.26c3,.14,7,.08,10.4,0H40.38c.17-.2.87-.21,1.41-.3L41.06.67c.43,0,.84,0,.8.13.52-.19.28-.31,0-.48A6.3,6.3,0,0,0,44,.12c-1.83-.39-1.54.32-3.64,0Z" style="fill:#f4f4f4"/><polygon points="43.75 0.48 43.31 0.71 43.98 0.6 43.75 0.48" style="fill:#f4f4f4"/><path d="M43.05,1.51c0-.1.25-.15.23-.25C42.43,1.19,42.53,1.33,43.05,1.51Z" style="fill:#f4f4f4"/><path d="M32.79.49l-1.1.08.71.09C32.38.56,32.65.51,32.79.49Z" style="fill:#f4f4f4"/><path d="M25.07,1.71a17.51,17.51,0,0,1,3.91,0c.84-.3-.4-.57,0-.85-.86-.07-.75.45-1.64.55-.33-.26-1.3.06-2.14,0C25.27,1.49,25.27,1.61,25.07,1.71Z" style="fill:#f4f4f4"/><path d="M19.82.7a11.06,11.06,0,0,1-1.95.07c.08-.16.49-.23.91-.18C18.52.21,18,.65,17.26.4c.06,0,.34.1.13.18C15.51.5,16.33.89,13.9.68c-.36.1-.7.1-.64.35A18.62,18.62,0,0,0,10.91.44c.06.14.61.48.6.79C9.16.79,9.11,1.29,7.61,1a2.93,2.93,0,0,1,.77,0C8.19.47,7.12,1,6.29.9L6.37.53A9.51,9.51,0,0,1,3.3.56L3.52.37c-.43.06-.84.11-1.31.14L.32.56l0,2.31c0,.55,0,1.08.07,1.56l-.23.9c.28,2.31.13-2.3.69-.6C.19,5,1.1,5.92.83,7.23.55,7.85.68,5.91.37,6.59c.35.29.1.7.2,1.4C.24,7.84.53,9.46.15,9l.62,2.46a3.62,3.62,0,0,0-.11,1.63c0-1.33.5.37.65-1.13a69.69,69.69,0,0,1-.09-8.51C1,3.34,1,2.9,1,2.45A2.43,2.43,0,0,0,.85,1.28a1.7,1.7,0,0,0,.22,0,1.82,1.82,0,0,1,.31.19c.59-.05.54-.11.26-.18S.89,1.18,1,1.09A2.85,2.85,0,0,1,2,1.2c.23.08.36.19.33.27,1.25,0,.14-.12.78-.37L4,1.61A133.34,133.34,0,0,1,17.5,1.4l-.34-.32c2,.18,3.37-.7,5.16,0l.61-.27c-.34.15.35.47-.18.68.55-.1,1.13,0,1.7-.08l-1-.15a1.89,1.89,0,0,1,1.72.13c1.5-.31-.89-.54-1.23-.81C21.82,1.14,21.8,0,19.77.24,18.51.42,19.9.53,19.82.7Z" style="fill:#f4f4f4"/><path d="M22.44,1.56l.31-.09A1.58,1.58,0,0,0,22.44,1.56Z" style="fill:#f4f4f4"/><path d="M.66,13.12c0,.16,0,.34,0,.59S.7,13.59.66,13.12Z" style="fill:#f4f4f4"/><path d="M25.17,1.38h0Z" style="fill:#f4f4f4"/><polygon points="26.18 0.61 25.61 0.6 25.71 0.74 26.18 0.61" style="fill:#f4f4f4"/><path d="M.27,19.07H.43C.38,19,.33,19,.27,19.07Z" style="fill:#f4f4f4"/><path d="M.17,35.17v-.35A.82.82,0,0,0,.17,35.17Z" style="fill:#f4f4f4"/><path d="M8.71,66.35a16.9,16.9,0,0,0,3.22-.47l-.07.17c.56-.08,2.38-.35,1.21-.64l-.29.14c-1.33.25-1-.27-2-.38-1.25.08-2,.7-3.08.56-.49,0-.42-.15-.27-.28-1.12,0-1.55.44-2.32.5-.13-.53-.76-.55-1.57-.46l-1.3.17a4,4,0,0,1-1.08,0,2,2,0,0,1,.22-.77,15.41,15.41,0,0,1-.06-1.6,12.37,12.37,0,0,0-.18-2c.32.71,0-1.26.38-1-.73-.37.33-3.82-.59-4.06.26-1.8-.06-.07.15-2.16.11,0,.11.36.13.5.18-.83-.4-1.27,0-2C1.29,51,1,52.42.73,51.43a3.66,3.66,0,0,1,.61-2.21c-.44-.15-.23-1.19-.45-2,0,.21-.11,1.4-.28.62.07-2-.28-1.61-.4-3.5.48-.95,0,1.89.39.23a11.28,11.28,0,0,0,.56,2.74A42.29,42.29,0,0,0,.9,42c.07-1,.23.49.28-.27C1.39,40,.68,39,.9,37.63l.25.29c-.34-.85.07-3.06-.11-4.67-.13.2-.21.34-.3.12.63,0-.32-2.24.12-3.82-.4.12-.62-1.42-.66-2.4.11-.34.27-.27.38-.26-.24,1.59.43,1.55.61,2.81C1,28.64,1.2,26.91.91,26l.31.36c.05-1.46-.7-1.28-.4-2.8l.23.15c0-3.07.37-6.68-.14-9.14-.19-.22-.63,1-.78,1.09.17,1.47.5,2.31.66,3.43H.43c.25.26.39,1.61.59.86.18.91-.32.69-.11,1.74C.53,21.59.49,21,.18,21l.18.91c-.14-.29-.12.55-.27.27.45,1.69-.17,2.36,0,4.11l.07-1c.2,0,.18.57.24,1a3.82,3.82,0,0,0-.38,1.66,7.9,7.9,0,0,1,.54,2.25C.19,29.94.37,31.9,0,32.1c.39.22.14,2,.37,2.17.08.56,0,1.33-.18,1.32,0-.08-.05-.25-.06-.42l0,.56c0-.06-.08,0-.08-.1,0,.5.27.5.08,1.14-.1,0-.1-.35-.15-.63-.06,1.32.6,2.32.24,3.42.19.22.21,1.75.63,1.42-.15.41-.49.26-.43,1.38.36.64-.13,1.25.1,2.09-.37-1.13-.1,0-.46-1-.14.76.33,1.9.27,3.22-.09.13-.19.13-.28.27.13.49.42,1.06.12,1.53l.26-.06a23.13,23.13,0,0,1-.33,3.13L.6,52.68A8.07,8.07,0,0,0,1,57.44C1,58,.87,58.83.76,58.82s-.1-.34-.17-.6C.57,59,.3,60,.7,60.49c.12.85-.27.62-.34,1.25.37,1.2.06,2.75.07,4.69.85,0,1.55-.09,1.73-.37-.33,0-.78,0-1.29-.07a19.58,19.58,0,0,0,.07-2.07c.1.35.27.08.29.57a7.9,7.9,0,0,1-.09,1.23,5.15,5.15,0,0,0,1.59,0l-.16.54C4.86,66.86,6.93,65.58,8.71,66.35Z" style="fill:#f4f4f4"/><path d="M.52,56.8l-.27,1,.23-.1A2.05,2.05,0,0,1,.52,56.8Z" style="fill:#f4f4f4"/><path d="M.48,57.66c0,.19.07.39.11.56a1.86,1.86,0,0,0,0-.59Z" style="fill:#f4f4f4"/><path d="M12.54,66.26a4,4,0,0,0,1.05,0A2.65,2.65,0,0,0,12.54,66.26Z" style="fill:#f4f4f4"/><polygon points="13.67 66.1 13.18 66.01 13.11 66.08 13.67 66.1" style="fill:#f4f4f4"/><path d="M41.85,65.63l1.55-.33c.27.16,2,0,1.45.25.92-.39,2.93,0,2.18-.58-4.54.2-10.8-.13-16,.37l.85-.23c-2.73.45-3.75-.49-5.94.4l.29-.46c-1.25-.13-2.39.66-3.7.18l.14.19c-.35,0-.49-.09-.84-.09l.14.09a6.1,6.1,0,0,1-2.37,0c-.07-.15.42-.06.7-.1-.42-.15-1.12.16-1.82.16s0-.21.08-.27c-2.1.2-3.06-.28-4.54.4-.15.12.54.23-.22.29a11.49,11.49,0,0,0,3.77-.24h-.35c1-.66.76.15,2.37-.14a9.22,9.22,0,0,1-1.41.42c1.87.5,2.67-.39,3.9.26l-.14,0a4.51,4.51,0,0,0,1.19-.12,4,4,0,0,0-.83-.19,1.41,1.41,0,0,0,.78-.48c.48.29.63-.14,1.4,0,.27.28-.64.25-.92.4l.91-.19c.84,0,.82.3,1.24.45.7-.21-.42-.15.16-.44.89.33,4.73.24,6.55,0-.63,0-.22.29-1,.24.28.07,1.26-.08,1.27-.28a14.31,14.31,0,0,1,4,.13l-.34-.21c1-.35,2.5.26,4.25.06h0c.56,0,1-.55,2.08-.44C42.35,65.4,41.79,65.38,41.85,65.63Z" style="fill:#f4f4f4"/><path d="M48,65.14l-.56.29c.62.07,1.4-.3,1.27-.49-.42.06-1-.07-1.05.1S47.72,65.18,48,65.14Z" style="fill:#f4f4f4"/><path d="M59.72,65.1c.22-.07.17-.18.26-.26a50.06,50.06,0,0,1-6.53-.07c-.83-.09-1,.35-2,.45l-.48-.3c-.57.19-2.3-.13-1.69.35a3.09,3.09,0,0,1,1-.14l-.08.17,1.12-.06-.36.21c1.52.29,1.07-.63,2.94-.43v.41a12.64,12.64,0,0,1,3,.14s0-.21-.2-.13-.48-.19-.34-.31c1.9-.33-.29.25,1,.42C59,65.26,62,65,62.91,65.36c-.75-.25.37-.52,1.28-.5.41.15-.29.25-.44.38a4.31,4.31,0,0,0,1.19.08c-.55-.23-.19-.54.79-.68C63.58,64.38,61.87,65.15,59.72,65.1Z" style="fill:#f4f4f4"/><path d="M60.36,64.75a.69.69,0,0,0-.38.09h.86Z" style="fill:#f4f4f4"/></g></g></svg>